<?xml version="1.0" standalone="no"?>
<!DOCTYPE svg PUBLIC "-//W3C//DTD SVG 20010904//EN"
 "http://www.w3.org/TR/2001/REC-SVG-20010904/DTD/svg10.dtd">
<svg version="1.0" xmlns="http://www.w3.org/2000/svg"
 width="736.000000pt" height="736.000000pt" viewBox="0 0 736.000000 736.000000"
 preserveAspectRatio="xMidYMid meet">

<g transform="translate(0.000000,736.000000) scale(0.100000,-0.100000)"
fill="#000000" stroke="none">
<path d="M620 3710 l0 -1710 3035 0 3035 0 -2 1708 -3 1707 -3032 3 -3033 2 0
-1710z m3123 1386 c43 -17 67 -56 77 -120 4 -28 10 -58 14 -67 5 -11 -2 -26
-18 -44 -49 -53 -29 -136 39 -169 22 -10 53 -29 68 -42 16 -13 36 -24 46 -24
22 0 60 -35 72 -67 5 -13 9 -46 9 -72 0 -27 7 -68 16 -92 9 -24 19 -98 24
-164 4 -66 13 -140 20 -165 8 -31 10 -87 5 -185 -5 -117 -3 -153 12 -217 22
-93 -6 -85 294 -92 l216 -5 7 83 c12 167 50 310 93 358 13 14 32 18 97 18 119
0 150 -11 170 -60 28 -70 38 -131 45 -270 l6 -135 118 -5 118 -5 10 40 c6 22
14 54 19 70 5 17 16 56 25 88 15 54 34 72 50 47 3 -5 35 -195 71 -422 35 -227
68 -422 73 -433 11 -26 10 -34 72 800 28 380 53 700 55 713 7 36 38 24 46 -18
4 -19 25 -228 48 -465 48 -507 50 -525 60 -525 4 0 19 22 34 50 l27 50 225 0
225 0 -3 -22 c-3 -23 -4 -23 -211 -26 l-208 -2 -27 -46 c-15 -26 -40 -64 -55
-86 -24 -34 -31 -38 -42 -27 -10 10 -25 129 -49 383 -20 203 -38 372 -41 374
-9 9 -13 -23 -24 -173 -88 -1239 -96 -1314 -131 -1279 -6 6 -17 51 -24 100
-71 469 -141 902 -147 898 -4 -2 -13 -28 -19 -56 -22 -93 -13 -88 -164 -88
l-133 0 -6 -87 c-13 -180 -56 -350 -93 -371 -19 -11 -226 8 -243 22 -38 31
-61 135 -70 316 l-6 135 -240 7 c-206 7 -247 6 -288 -8 -27 -9 -59 -14 -72
-12 -20 4 -25 0 -32 -26 -4 -17 -8 -62 -8 -101 -2 -102 -15 -175 -31 -175 -24
0 -17 -93 11 -161 36 -85 39 -129 19 -259 -9 -63 -17 -161 -18 -216 0 -91 3
-107 27 -154 31 -60 33 -75 11 -84 -28 -11 -132 -7 -140 6 -4 6 -8 84 -9 172
-2 131 -7 176 -25 241 -18 66 -21 96 -16 170 4 68 1 100 -10 130 -9 22 -23 66
-33 98 -14 50 -20 59 -43 64 -16 3 -28 11 -28 17 0 6 -5 29 -11 50 -13 46 -23
36 -34 -31 -7 -42 -8 -43 -44 -43 l-37 0 -24 -72 c-19 -59 -24 -97 -25 -198
-1 -71 -10 -164 -20 -215 -9 -51 -18 -147 -19 -222 -2 -90 -7 -137 -16 -148
-21 -26 -150 -18 -150 10 0 7 14 39 30 70 35 66 36 89 14 265 -28 227 -29 251
-6 321 23 70 25 83 23 150 -1 46 -1 46 -42 53 l-40 6 7 144 7 144 -59 7 c-32
4 -158 8 -279 8 l-220 2 -12 -92 c-16 -122 -39 -207 -70 -265 -42 -77 -55 -82
-228 -83 -130 0 -155 3 -179 18 -53 35 -87 145 -111 357 l-5 45 -87 0 -86 0
-51 -82 c-54 -88 -80 -104 -90 -55 -3 15 -19 180 -36 367 -31 334 -36 373 -45
363 -5 -4 -34 -371 -85 -1068 -28 -381 -28 -380 -50 -380 -10 0 -21 8 -24 18
-3 9 -37 222 -76 472 -39 250 -73 468 -76 484 -8 37 -19 20 -36 -52 -8 -39
-17 -56 -32 -61 -12 -3 -106 -6 -211 -6 -183 0 -190 1 -190 20 0 19 8 20 189
25 l189 5 32 116 c36 130 40 139 60 139 17 0 18 -3 50 -200 37 -228 105 -662
105 -666 0 -2 4 -4 9 -4 4 0 11 51 15 113 4 61 29 402 57 757 27 355 49 651
49 658 0 19 38 14 44 -5 2 -10 26 -236 51 -503 26 -267 49 -492 52 -500 3 -9
15 3 35 35 17 28 32 52 34 53 1 2 47 6 101 9 58 3 101 10 105 16 4 7 8 37 8
67 0 79 33 227 64 288 42 83 50 86 239 79 l162 -7 31 -35 c42 -47 73 -147 87
-277 l11 -108 208 0 208 0 6 28 c3 15 12 43 19 62 9 23 15 89 17 190 3 104 8
163 17 179 14 25 23 72 45 232 7 53 17 103 22 110 5 8 11 51 15 97 6 97 25
129 87 152 22 8 48 23 59 32 10 10 35 24 56 33 44 18 56 39 55 96 0 24 -1 85
-2 134 -1 108 18 152 74 172 46 16 55 16 93 -1z"/>
<path d="M3427 4223 c-4 -21 -11 -65 -16 -98 -6 -33 -14 -87 -20 -120 -5 -33
-22 -87 -37 -120 -23 -48 -28 -75 -28 -137 -1 -69 6 -100 19 -86 3 2 14 49 25
104 12 54 31 126 45 159 34 85 37 108 36 220 -2 103 -15 145 -24 78z"/>
<path d="M3906 4192 c-20 -39 -21 -146 -2 -204 8 -24 17 -59 21 -78 3 -19 15
-73 25 -120 11 -47 23 -103 26 -125 l7 -40 15 50 c15 50 9 138 -18 280 -5 28
-13 82 -18 120 -6 39 -16 88 -25 109 l-15 40 -16 -32z"/>
</g>
</svg>
