<?xml version="1.0" standalone="no"?>
<!DOCTYPE svg PUBLIC "-//W3C//DTD SVG 20010904//EN"
 "http://www.w3.org/TR/2001/REC-SVG-20010904/DTD/svg10.dtd">
<svg version="1.0" xmlns="http://www.w3.org/2000/svg"
 width="736.000000pt" height="736.000000pt" viewBox="0 0 736.000000 736.000000"
 preserveAspectRatio="xMidYMid meet">

<g transform="translate(0.000000,736.000000) scale(0.100000,-0.100000)"
fill="#000000" stroke="none">
<path d="M4090 6740 c-25 -5 -85 -8 -135 -8 -49 0 -103 -3 -120 -7 -49 -13
-158 -71 -184 -99 -14 -15 -46 -40 -72 -57 l-48 -30 -100 12 c-182 23 -322
-10 -424 -101 -43 -38 -187 -227 -187 -245 0 -4 -14 -23 -30 -42 -42 -47 -79
-124 -92 -191 -8 -38 -26 -77 -55 -119 -109 -155 -156 -333 -156 -583 1 -127
4 -156 27 -233 29 -99 48 -140 113 -244 71 -115 68 -136 -15 -87 -81 49 -151
67 -236 62 -90 -6 -154 -38 -219 -107 -59 -62 -78 -106 -86 -190 l-6 -64 -45
-14 c-25 -8 -74 -16 -110 -19 -36 -2 -94 -13 -130 -23 -36 -11 -98 -22 -138
-24 -143 -8 -281 -104 -356 -246 -67 -129 -80 -196 -81 -446 -1 -142 -6 -239
-15 -274 -22 -91 6 -223 66 -314 15 -22 39 -90 55 -150 62 -237 148 -405 266
-518 97 -94 197 -139 310 -139 69 0 69 -16 4 -85 -59 -62 -96 -131 -110 -207
-7 -42 -22 -72 -57 -118 -61 -80 -96 -181 -99 -281 -1 -42 -4 -80 -7 -85 -14
-22 -38 -121 -38 -154 0 -47 36 -222 57 -277 8 -24 21 -48 29 -53 7 -6 20 -36
30 -67 20 -65 95 -153 156 -184 90 -46 222 -43 321 7 l50 26 39 -45 c58 -68
129 -99 231 -99 73 0 88 4 150 36 68 35 70 35 101 18 22 -12 55 -17 116 -17
73 0 93 4 142 28 124 61 196 194 214 399 11 126 -20 246 -89 347 -47 68 -89
158 -85 182 2 16 18 27 66 44 34 12 79 34 100 47 21 14 57 35 81 48 38 19 43
20 37 5 -29 -76 -32 -206 -6 -254 5 -11 11 -67 13 -124 3 -98 5 -109 41 -183
79 -158 199 -235 419 -269 21 -3 40 -12 43 -20 7 -18 113 -84 179 -112 28 -12
69 -24 92 -26 23 -3 57 -16 75 -31 66 -50 116 -66 211 -66 61 0 98 -5 119 -16
22 -11 58 -16 118 -16 72 0 94 4 136 25 28 14 56 32 62 40 7 8 29 18 49 22
103 19 206 110 239 212 30 91 26 262 -8 374 -14 47 -35 104 -46 126 -27 52
-112 145 -169 184 -23 16 -43 34 -43 39 0 5 22 21 48 34 50 25 114 89 219 217
72 88 158 219 166 251 6 22 15 25 99 36 66 8 110 20 155 42 141 70 282 246
375 468 26 64 37 78 77 103 81 49 146 150 177 271 21 81 13 154 -24 232 l-29
61 13 95 c17 127 17 309 -1 392 -21 104 -68 191 -138 261 -74 74 -147 112
-242 127 -38 6 -96 22 -127 36 -31 13 -85 29 -120 33 -35 5 -92 21 -128 36
-86 37 -223 40 -314 7 -108 -39 -230 -143 -302 -256 -16 -25 -32 -46 -35 -46
-4 0 -9 33 -11 73 -5 75 -40 176 -98 287 -15 30 -51 99 -78 153 l-50 97 28 15
c40 21 146 121 179 169 16 23 45 73 66 111 21 39 45 76 54 83 57 44 127 125
148 169 16 34 27 83 33 140 4 49 18 115 30 148 20 53 21 72 16 170 -9 142 -9
154 -1 255 11 133 -26 261 -99 346 -22 27 -35 54 -40 86 -17 113 -99 219 -214
277 -62 31 -184 57 -229 48 -14 -3 -52 6 -84 18 -56 22 -177 46 -216 44 -10
-1 -38 -5 -63 -9z m135 -316 c68 -16 218 -117 230 -155 4 -11 11 -19 16 -19
15 0 11 15 -12 44 -12 15 -16 26 -9 26 8 0 7 8 -4 25 -16 24 -15 25 8 31 36 9
104 -14 122 -41 8 -13 14 -38 12 -57 -3 -30 -6 -33 -33 -30 l-30 2 38 -20 c20
-11 37 -25 37 -31 0 -6 -4 -7 -10 -4 -5 3 -10 2 -10 -2 0 -5 9 -14 20 -21 11
-7 20 -17 20 -23 0 -5 -3 -8 -7 -6 -23 14 -241 37 -277 30 -39 -7 -38 -8 34
-14 202 -18 307 -47 331 -91 20 -38 28 -121 13 -149 -19 -39 -41 -43 -47 -11
-3 15 -20 47 -37 70 -60 83 -191 119 -321 88 -125 -29 -167 -54 -309 -190
-178 -170 -222 -192 -415 -206 -66 -5 -149 -17 -184 -27 -80 -23 -112 -58
-163 -180 -46 -110 -70 -132 -128 -114 -22 6 -56 28 -76 47 -37 38 -53 40 -34
5 6 -12 8 -26 5 -31 -4 -6 -1 -9 7 -8 16 4 16 -80 -1 -160 -12 -60 -1 -131 27
-174 55 -82 77 -110 142 -178 71 -75 110 -133 110 -167 0 -10 16 -63 35 -118
35 -100 49 -225 25 -225 -6 0 -10 30 -10 71 0 57 -6 84 -30 139 -17 38 -30 83
-30 102 0 32 -33 118 -45 118 -3 0 1 -13 10 -29 8 -17 19 -59 24 -94 5 -35 19
-84 32 -108 15 -29 24 -69 27 -116 5 -83 1 -86 -57 -51 l-36 22 15 -23 c9 -13
47 -42 85 -66 71 -43 98 -71 111 -115 l7 -24 -37 27 c-47 36 -46 18 2 -36 57
-64 63 -74 72 -113 10 -45 3 -72 -14 -50 -14 18 -56 31 -56 17 0 -6 4 -11 10
-11 21 0 40 -60 41 -136 l2 -77 51 -56 c28 -31 67 -68 88 -83 l36 -26 0 -86
c0 -90 -14 -124 -45 -112 -8 3 -19 6 -25 6 -6 0 -9 24 -6 65 5 81 -10 71 -26
-17 -11 -61 -12 -63 -44 -66 -22 -2 -34 2 -38 12 -3 9 -12 16 -20 16 -17 0
-18 12 -2 28 9 9 9 18 0 37 -14 30 -16 85 -4 85 17 0 -7 111 -33 155 -24 42
-54 63 -41 29 3 -8 2 -13 -3 -9 -5 3 -17 25 -26 50 -21 54 -14 103 21 145 30
34 19 40 -19 9 -29 -22 -52 -88 -42 -119 8 -25 -6 -25 -35 -2 -16 13 -23 32
-27 67 -7 76 -13 97 -26 92 -7 -2 -20 10 -29 27 -16 28 -17 29 -18 8 0 -27 17
-64 36 -75 9 -5 14 -26 14 -53 0 -61 13 -82 65 -105 59 -26 103 -86 97 -133
-4 -34 -6 -36 -41 -37 -20 0 -45 -2 -55 -4 -46 -9 -274 -7 -290 2 -17 9 -17
12 -2 41 18 35 36 42 36 15 0 -10 5 -25 10 -33 7 -10 8 2 4 40 -4 39 -1 75 11
118 19 66 35 89 35 50 0 -13 5 -30 11 -38 11 -15 7 42 -6 107 l-6 28 15 -25
c28 -46 17 2 -25 109 -86 219 -97 295 -54 376 19 35 22 46 10 42 -11 -5 -15 1
-15 23 0 34 15 47 35 30 26 -21 16 6 -15 45 -17 21 -33 49 -37 63 -6 25 12 97
26 107 5 3 20 -17 33 -44 23 -51 45 -69 33 -28 -9 27 -42 81 -116 184 -66 93
-118 181 -143 243 -38 92 -30 356 13 471 10 25 40 79 67 120 27 41 59 92 72
114 l23 40 -6 -44 c-3 -26 -16 -56 -32 -75 -56 -66 -67 -139 -33 -206 24 -46
47 -66 36 -29 -4 13 -10 50 -13 82 -6 61 2 90 48 167 27 48 29 78 10 139 -16
53 18 118 66 125 13 2 20 15 24 45 5 38 49 103 49 73 0 -7 5 -10 10 -7 6 3 10
15 10 27 0 35 33 78 78 100 59 28 163 21 235 -17 55 -28 57 -29 57 -16 0 5 -8
12 -17 15 -10 3 -2 4 17 2 20 -2 50 4 70 14 19 10 46 21 60 24 21 6 19 2 -15
-28 -22 -19 -35 -35 -29 -36 5 0 16 6 23 13 11 10 11 8 2 -10 -13 -26 -14 -36
-2 -29 5 3 19 25 31 48 26 51 65 95 102 114 35 18 38 18 38 -5 0 -10 7 -25 16
-32 15 -12 16 -10 10 17 -13 60 25 114 80 114 51 0 93 -22 144 -74 24 -25 51
-46 59 -46 9 0 -5 21 -34 51 -28 29 -39 45 -25 35 36 -24 47 -20 21 8 l-23 25
38 6 c22 4 44 8 49 10 6 2 17 2 25 0 8 -2 29 -7 45 -11z m192 -68 c15 -13 25
-27 22 -30 -3 -3 -21 8 -40 24 -19 16 -29 29 -22 30 7 0 25 -11 40 -24z m100
-332 c62 -21 99 -48 119 -86 17 -34 13 -82 -10 -114 -14 -18 -15 -18 -26 11
-10 25 -9 36 5 62 10 17 15 37 13 44 -2 7 -14 -8 -26 -33 -43 -87 -92 -104
-92 -30 0 22 5 53 11 71 6 18 9 35 5 38 -3 3 -10 -7 -16 -23 -19 -51 -44 -94
-72 -121 l-27 -26 -31 64 c-19 40 -29 72 -25 87 4 15 1 22 -9 22 -9 0 -21 -21
-32 -52 -22 -68 -72 -168 -83 -168 -16 0 -73 110 -68 131 3 10 1 19 -4 19 -5
0 -9 -9 -9 -20 0 -11 -5 -19 -11 -17 -6 1 -17 -22 -25 -51 -18 -70 -54 -152
-66 -152 -5 0 -17 18 -25 40 -17 43 -30 50 -39 23 -20 -58 -65 -143 -77 -143
-7 0 -21 16 -30 36 -19 39 -31 38 -40 -3 -8 -35 -43 -93 -57 -93 -6 0 -19 14
-28 31 -9 17 -23 38 -30 47 -13 16 -13 15 -8 -2 6 -17 4 -17 -10 -5 -15 12
-16 11 -10 -9 9 -27 -20 -115 -45 -138 -26 -24 -53 -4 -94 71 -25 43 -41 62
-50 58 -13 -4 -13 -8 -1 -25 12 -17 12 -25 -1 -56 -22 -53 -28 -57 -62 -31
-28 21 -87 97 -79 104 29 25 86 38 203 45 142 9 224 30 298 77 23 14 94 77
158 139 118 114 193 163 277 183 62 15 178 12 229 -5z m-156 -171 l31 -68 49
53 c45 49 49 51 49 29 0 -33 10 -57 22 -57 5 0 23 9 38 20 25 17 29 18 34 4
17 -45 11 -49 -92 -50 -79 -1 -113 -7 -184 -31 -49 -17 -88 -27 -88 -22 0 5 8
13 19 18 10 6 21 21 25 34 8 33 55 137 61 137 3 0 20 -30 36 -67z m-161 -98
c26 -16 7 -44 -57 -82 -38 -23 -69 -39 -71 -38 -5 4 35 134 54 182 l16 38 24
-47 c13 -26 28 -49 34 -53z m435 35 c3 -5 -1 -10 -10 -10 -9 0 -13 5 -10 10 3
6 8 10 10 10 2 0 7 -4 10 -10z m-39 -30 c77 -14 112 -28 124 -51 11 -19 14
-102 4 -111 -3 -4 -21 4 -40 17 -75 51 -226 58 -329 16 -61 -25 -55 -26 27 -5
79 21 197 14 260 -14 50 -22 63 -35 54 -58 -5 -14 -8 -13 -28 0 -12 9 -34 16
-48 15 l-25 0 25 -10 c53 -21 60 -36 60 -124 0 -89 -5 -99 -62 -137 -47 -31
-62 -50 -132 -173 -104 -181 -136 -201 -313 -196 -45 1 -53 4 -53 20 0 34 38
68 139 121 140 73 145 88 7 21 -63 -31 -112 -53 -110 -49 3 4 -2 5 -10 2 -17
-7 -56 -81 -56 -108 0 -10 -16 -47 -36 -83 -34 -61 -36 -69 -31 -127 3 -34 18
-93 32 -131 15 -39 34 -99 44 -135 10 -36 29 -88 41 -116 l23 -51 -29 -43
c-27 -41 -29 -50 -27 -131 2 -76 7 -96 39 -165 46 -98 53 -181 22 -258 -11
-29 -17 -60 -13 -74 6 -25 5 -25 -44 -19 -28 3 -137 11 -243 18 -164 10 -196
14 -214 30 -11 11 -25 19 -31 19 -18 0 -113 108 -115 132 -1 13 -2 87 -3 164
0 121 -3 145 -17 161 -12 12 -18 36 -18 64 0 54 -27 101 -69 118 l-30 13 1 82
c1 67 -3 92 -25 144 -14 35 -31 88 -36 118 -14 74 -34 109 -109 187 -36 37
-62 67 -58 67 4 0 32 -12 62 -26 74 -35 187 -43 269 -19 95 27 143 57 260 160
159 140 349 285 425 323 38 19 52 30 35 26 -89 -20 -267 -148 -520 -373 -27
-24 -84 -60 -125 -80 -72 -35 -79 -36 -185 -36 -99 0 -115 3 -166 28 -70 34
-143 110 -160 167 -10 33 -10 57 -1 109 6 37 15 76 18 86 5 13 4 16 -4 11 -13
-8 -15 4 -6 28 5 14 8 14 27 1 12 -8 41 -15 64 -15 38 0 50 6 103 55 64 59 92
71 143 61 49 -9 171 -63 156 -69 -8 -2 5 -4 27 -3 49 2 71 16 146 90 62 61 90
76 146 76 60 1 130 31 247 107 124 80 160 97 260 123 81 22 146 24 231 10z
m-579 -101 c19 -37 21 -39 27 -17 7 22 7 22 16 3 6 -14 3 -24 -9 -33 -38 -31
-110 -60 -166 -66 -33 -4 -68 -10 -78 -12 -14 -5 -13 2 10 40 31 51 39 55 48
27 7 -24 32 -34 46 -18 5 7 24 36 40 65 16 28 33 52 37 52 5 0 17 -18 29 -41z
m-324 -211 c-70 -66 -74 -69 -110 -62 -21 4 -52 13 -70 20 -29 13 -30 16 -23
46 23 88 28 94 50 53 7 -14 30 -41 51 -60 36 -33 38 -34 44 -14 5 16 9 18 15
9 6 -9 10 -6 15 11 4 13 16 47 27 76 l19 52 28 -31 27 -31 -73 -69z m-367 70
c-2 -24 -5 -48 -5 -55 -1 -6 -17 -20 -36 -31 l-34 -21 19 50 c11 27 20 52 20
55 0 3 5 2 10 -1 6 -3 10 2 10 13 0 17 8 32 17 32 2 0 2 -19 -1 -42z m789
-815 c21 -57 53 -129 72 -160 20 -32 51 -89 69 -128 31 -63 32 -70 17 -76 -17
-6 -16 -7 2 -14 31 -12 65 -47 65 -66 0 -9 14 -43 30 -74 29 -55 39 -120 24
-159 -5 -13 -13 -10 -46 20 -50 45 -61 37 -19 -13 33 -40 41 -95 20 -134 -6
-11 -9 -25 -7 -31 2 -6 11 4 20 22 14 30 16 31 22 12 4 -12 2 -39 -4 -61 -15
-56 -56 -142 -64 -134 -3 3 -6 -1 -6 -10 0 -8 -5 -17 -12 -19 -7 -3 6 -23 30
-50 38 -41 42 -50 41 -94 0 -69 -19 -116 -52 -132 -36 -17 -51 -8 -33 21 15
24 27 137 15 137 -5 0 -11 -10 -13 -22 -15 -84 -23 -103 -48 -121 -23 -17 -32
-19 -53 -9 -14 6 -25 16 -25 22 0 6 5 8 11 4 8 -4 9 3 5 22 -4 19 -1 36 8 49
18 23 21 39 6 30 -13 -8 -13 1 0 26 7 13 7 19 1 19 -21 0 -23 49 -4 77 13 20
19 51 22 108 2 44 7 88 12 97 12 22 11 31 -1 23 -5 -3 -10 0 -10 7 0 7 -9 30
-20 51 -28 51 -25 76 11 113 17 17 26 34 21 38 -5 3 -26 -12 -45 -33 -20 -22
-38 -37 -41 -33 -10 9 -7 82 5 105 6 12 34 44 62 70 l52 49 -50 -33 c-27 -17
-58 -41 -68 -53 -17 -21 -17 -21 -11 9 10 44 22 66 63 109 21 23 29 36 19 33
-11 -4 -18 -1 -18 6 0 7 -14 39 -30 72 -22 43 -29 52 -25 30 2 -16 -2 -7 -11
20 -8 28 -29 85 -45 128 -16 44 -31 98 -34 120 -6 46 -2 40 34 -48 14 -34 20
-43 21 -27 0 12 -8 39 -19 60 -26 52 -33 88 -25 130 8 42 4 50 59 -105z
m-1668 -263 c48 -29 182 -160 200 -195 25 -47 20 -141 -12 -217 -14 -34 -34
-83 -43 -108 -9 -25 -18 -47 -19 -49 -1 -2 -14 4 -27 13 -37 24 -42 20 -12
-11 15 -14 35 -46 46 -71 24 -53 24 -58 5 -42 -10 8 -15 9 -15 2 0 -6 17 -23
38 -39 20 -15 51 -38 67 -52 28 -23 29 -23 5 -16 -21 7 -23 6 -13 -7 7 -8 32
-21 55 -28 l43 -14 -100 -12 c-149 -18 -165 -18 -165 5 0 58 -112 372 -147
410 -10 13 -7 20 20 43 22 21 25 26 10 18 -39 -18 -26 6 30 55 28 25 42 41 29
35 -22 -11 -22 -10 -18 27 16 128 17 138 3 119 -12 -16 -15 -13 -30 34 -9 29
-17 65 -17 79 0 47 17 52 67 21z m1732 -130 c0 -8 -8 5 -19 29 -11 24 -20 46
-20 50 1 12 39 -64 39 -79z m-1978 -210 c11 0 42 -21 70 -47 89 -83 157 -259
218 -561 44 -223 54 -321 49 -509 -5 -189 -22 -255 -79 -311 -37 -36 -70 -44
-127 -30 -34 8 -42 14 -36 27 44 106 57 341 30 551 -49 376 -142 680 -243 791
-32 36 -35 42 -21 55 19 19 89 45 106 39 8 -3 22 -5 33 -5z m3069 -42 c125
-63 133 -281 24 -706 -82 -322 -189 -558 -302 -666 -35 -33 -52 -28 -52 17 0
17 -9 68 -21 113 l-21 81 30 59 c132 263 262 828 223 974 -8 32 -9 28 -10 -32
-1 -93 -24 -220 -77 -427 -24 -96 -44 -176 -44 -178 0 -2 -4 -3 -9 -3 -11 0 1
56 18 88 15 27 11 124 -5 129 -8 3 -13 -19 -16 -64 -3 -55 -10 -78 -35 -120
-18 -29 -28 -55 -23 -58 6 -3 10 -1 10 6 0 7 3 9 7 5 4 -3 13 6 20 21 7 16 11
21 9 13 -2 -8 0 -22 5 -31 4 -9 2 -35 -5 -59 -12 -39 -14 -42 -24 -24 -9 15
-10 11 -7 -25 3 -33 -4 -66 -29 -128 -18 -46 -36 -80 -40 -76 -5 5 -6 -3 -2
-17 4 -17 1 -15 -9 8 -9 18 -13 37 -10 42 3 4 2 10 -3 12 -4 1 -31 51 -60 110
-51 106 -52 109 -41 155 7 27 14 51 18 54 3 4 33 1 66 -7 86 -18 91 -18 115
21 15 25 20 47 18 81 -4 55 -11 61 -91 69 l-59 7 6 31 c3 18 22 74 40 124 79
212 171 355 255 400 55 29 75 29 131 1z m-3270 -13 c102 -53 189 -261 259
-619 41 -205 55 -353 48 -504 -8 -199 -50 -297 -136 -323 -49 -15 -116 4 -108
30 61 189 61 405 1 731 -56 304 -119 487 -210 605 l-37 49 29 23 c34 27 109
31 154 8z m-241 -39 c89 -46 161 -183 220 -416 124 -489 131 -874 17 -995
-100 -106 -229 -24 -324 206 -37 90 -105 350 -94 361 4 4 34 14 67 22 80 22
89 32 80 96 -5 36 -16 62 -35 83 l-27 31 -57 -18 c-33 -10 -61 -15 -66 -10 -4
5 -14 75 -20 156 -26 315 35 498 166 498 25 0 57 -6 73 -14z m3777 -39 c90
-97 84 -310 -17 -697 -91 -346 -224 -614 -338 -678 -57 -32 -112 -29 -155 9
l-35 30 53 63 c30 35 70 93 91 130 83 148 177 427 231 683 34 163 44 365 21
441 -17 60 -15 63 62 58 48 -3 58 -7 87 -39z m191 -34 c126 -60 134 -300 23
-722 -84 -319 -203 -575 -308 -661 -71 -58 -150 -60 -202 -5 l-24 25 41 43
c114 119 218 354 303 682 74 285 89 489 46 622 -5 16 -2 23 11 26 38 10 76 6
110 -10z m-1289 -204 c31 -100 39 -159 21 -159 -10 0 -22 34 -38 108 -14 59
-27 113 -29 121 -3 8 0 12 9 9 7 -2 24 -38 37 -79z m-53 -53 c8 -31 15 -67 14
-79 l0 -22 -9 22 c-5 12 -18 28 -30 35 -11 7 -20 23 -20 35 0 23 20 76 27 70
2 -2 10 -30 18 -61z m-1428 -52 c-3 -3 -12 -4 -19 -1 -8 3 -5 6 6 6 11 1 17
-2 13 -5z m458 -78 l1 -63 -236 -6 c-129 -3 -324 -16 -434 -27 -109 -12 -202
-18 -206 -13 -4 4 -12 32 -17 60 l-10 53 31 4 c17 3 60 10 96 15 55 9 214 23
390 34 25 2 122 4 215 5 l170 2 0 -64z m614 43 c69 -6 128 -12 131 -14 8 -5 3
-45 -11 -95 l-11 -36 -81 8 c-45 4 -148 12 -230 16 -81 5 -150 12 -153 15 -8
8 -7 104 1 117 8 13 96 10 354 -11z m559 -64 c159 -24 198 -31 327 -56 l55
-10 0 -39 c0 -22 -8 -47 -19 -61 l-18 -23 -104 18 c-117 20 -428 66 -444 66
-7 0 -7 21 -1 65 7 43 15 65 24 65 7 0 88 -11 180 -25z m-1299 -139 c-16 -39
-29 -80 -29 -91 -1 -20 -2 -20 -9 -1 -6 16 -10 11 -19 -26 -7 -26 -12 -56 -12
-67 0 -10 -4 -21 -10 -23 -5 -1 1 -25 14 -53 18 -37 26 -73 29 -140 l5 -90
-19 37 c-17 33 -36 97 -68 233 -14 57 -57 125 -79 125 -12 0 -11 -5 6 -23 30
-32 48 -79 66 -177 22 -118 66 -226 136 -334 177 -273 178 -415 6 -594 -59
-62 -141 -120 -153 -109 -3 3 9 30 26 60 17 30 31 65 31 78 -1 20 -4 18 -23
-17 -100 -186 -174 -247 -301 -247 -43 0 -127 32 -160 61 -10 9 -34 41 -53 70
-19 30 -37 51 -40 48 -3 -3 -1 -11 4 -18 15 -20 24 -50 14 -46 -6 1 -22 27
-38 57 -16 30 -35 57 -43 59 -11 4 -10 -1 4 -23 10 -15 22 -39 26 -54 4 -14
11 -34 15 -43 11 -28 -45 -23 -90 8 -54 36 -73 62 -90 124 -9 30 -27 89 -40
130 -16 48 -25 100 -25 140 -1 54 -3 62 -12 45 -19 -32 -15 -145 5 -183 10
-19 23 -61 28 -94 12 -72 30 -111 73 -156 43 -46 77 -62 132 -62 38 0 62 -9
125 -46 44 -26 79 -49 79 -51 0 -3 -11 -18 -25 -35 -14 -16 -25 -38 -25 -49 0
-11 -15 -33 -32 -50 -18 -16 -28 -29 -22 -29 5 0 15 5 22 12 9 9 12 7 12 -10
0 -12 -4 -22 -10 -22 -5 0 -10 -5 -10 -11 0 -5 4 -8 9 -4 16 9 23 -13 11 -35
-6 -11 -20 -20 -31 -20 -11 0 -29 -5 -40 -10 -22 -13 -24 -4 -4 30 8 14 14 34
15 46 0 12 13 41 30 65 43 63 37 69 -10 10 -22 -28 -40 -58 -40 -66 0 -9 -7
-30 -16 -47 -12 -23 -18 -28 -24 -17 -14 21 -23 3 -11 -19 16 -30 14 -42 -6
-35 -16 6 -16 5 0 -17 9 -14 17 -36 17 -51 0 -19 12 -37 42 -63 l43 -36 -33
-6 c-57 -11 -34 -23 36 -18 76 6 88 1 97 -41 l6 -30 -20 23 c-19 21 -22 22
-54 9 -18 -8 -47 -31 -64 -52 l-31 -37 -16 23 c-9 13 -16 35 -16 49 0 14 -9
43 -20 65 -11 22 -20 44 -20 50 0 7 -14 24 -31 40 -30 26 -31 30 -26 83 4 39
3 52 -5 44 -6 -6 -11 -34 -12 -62 l-1 -52 -45 6 c-55 8 -44 -8 21 -28 41 -13
42 -14 14 -16 l-30 -2 35 -10 c39 -11 67 -33 81 -63 9 -17 8 -17 -10 3 -13 15
-30 22 -55 22 -32 0 -47 -10 -123 -85 l-86 -84 -23 69 c-21 62 -22 73 -10 107
7 21 16 67 20 102 4 42 15 80 32 108 14 25 24 47 21 49 -6 6 -67 -89 -67 -105
0 -7 -5 -9 -11 -5 -8 4 -9 -1 -4 -16 9 -27 9 -89 1 -97 -3 -4 -12 1 -19 10
-16 22 -68 40 -79 29 -6 -6 2 -12 19 -15 34 -7 53 -41 53 -96 0 -21 7 -56 16
-77 18 -43 15 -114 -7 -140 -11 -14 -15 -8 -31 48 -10 34 -18 80 -18 100 0 28
-6 41 -24 53 -22 15 -28 14 -100 -21 -44 -21 -91 -53 -110 -75 -26 -28 -36
-34 -40 -22 -13 34 -4 63 36 108 28 32 35 44 20 36 -19 -10 -22 -9 -22 5 0 9
8 28 18 42 33 48 37 58 14 38 -21 -18 -21 -18 -28 8 -15 61 21 139 90 196 68
55 148 150 127 150 -5 0 -16 -9 -25 -21 -8 -11 -24 -28 -36 -36 l-22 -16 7 64
c8 73 21 97 66 130 l32 22 -5 -46 c-3 -26 -2 -47 2 -47 10 0 20 37 20 79 0 22
8 44 23 59 20 22 23 36 28 175 4 84 11 164 17 179 6 15 26 44 45 65 19 21 39
54 46 73 16 47 30 63 70 80 18 7 44 25 58 39 l25 26 -7 -25 c-4 -14 -18 -46
-31 -72 -35 -69 -15 -59 23 11 36 65 72 230 93 426 7 61 20 142 30 180 17 64
86 201 114 224 11 9 370 34 542 38 l41 1 -28 -72z m133 38 c41 -47 65 -55 107
-38 20 8 48 12 67 8 28 -5 35 -2 56 26 l23 32 150 -7 c246 -11 315 -21 332
-45 11 -15 25 -20 51 -20 20 1 50 -2 66 -6 20 -5 40 -1 63 11 18 10 35 16 38
13 8 -7 -14 -168 -31 -228 -30 -105 -65 -163 -226 -377 -84 -111 -155 -159
-306 -207 -104 -32 -185 -34 -298 -4 l-84 22 -76 127 -76 128 -9 143 c-12 178
-2 259 52 404 17 45 24 54 45 54 16 0 36 -13 56 -36z m-767 -71 c-20 -37 -47
-93 -59 -126 l-22 -59 -12 99 c-6 55 -14 107 -17 116 -5 12 4 17 52 22 51 5
80 10 91 14 2 0 -13 -29 -33 -66z m1794 25 c0 -7 -8 -38 -18 -68 -18 -55 -19
-78 -1 -50 6 8 17 39 25 68 12 40 20 52 35 52 13 0 20 -7 20 -18 0 -23 -52
-177 -74 -220 -9 -18 -12 -32 -8 -32 12 0 64 109 94 195 22 62 25 65 55 65 85
0 232 -261 304 -538 30 -117 32 -155 4 -87 -9 20 -19 35 -22 32 -3 -4 8 -35
25 -69 35 -73 87 -240 103 -334 11 -61 10 -66 -16 -117 -15 -28 -53 -83 -84
-122 l-56 -70 -3 145 c-3 103 -8 153 -19 173 -18 35 -27 30 -13 -7 5 -15 10
-89 10 -165 0 -126 -2 -141 -25 -188 -19 -38 -34 -54 -63 -66 -82 -35 -134
-30 -246 23 -34 17 -71 30 -80 30 -12 0 -6 9 18 31 43 37 141 160 123 153 -7
-2 -37 -32 -66 -65 -85 -96 -158 -120 -246 -80 -90 40 -204 211 -225 336 -11
63 -48 155 -62 155 -10 0 -10 -3 1 -33 l10 -25 -76 31 -75 30 56 17 c119 37
187 92 322 261 51 63 100 121 108 128 39 33 86 130 100 207 24 134 29 187 15
178 -9 -5 -10 -2 -6 10 4 10 7 24 7 32 0 8 10 14 25 14 14 0 25 -6 24 -12z
m-2764 -48 c8 -16 15 -46 15 -67 l0 -38 -80 -23 c-44 -13 -85 -20 -91 -16 -17
10 -39 69 -39 103 0 27 4 31 58 46 31 9 62 18 67 20 32 11 55 3 70 -25z m2702
-62 c-3 -8 -6 -5 -6 6 -1 11 2 17 5 13 3 -3 4 -12 1 -19z m-1140 -20 c-3 -8
-6 -5 -6 6 -1 11 2 17 5 13 3 -3 4 -12 1 -19z m1130 -50 c-3 -7 -5 -2 -5 12 0
14 2 19 5 13 2 -7 2 -19 0 -25z m-1140 -30 c-2 -13 -4 -5 -4 17 -1 22 1 32 4
23 2 -10 2 -28 0 -40z m2600 37 c34 -14 35 -17 30 -52 -9 -54 -38 -88 -73 -86
-15 1 -31 6 -35 10 -9 9 22 143 34 143 4 0 24 -7 44 -15z m-1470 -47 c-3 -8
-6 -5 -6 6 -1 11 2 17 5 13 3 -3 4 -12 1 -19z m-22 -69 c-9 -24 -25 -55 -36
-69 l-21 -25 14 25 c8 14 23 46 33 73 22 59 30 56 10 -4z m-823 -541 c48 -16
84 -21 152 -20 81 1 94 -2 145 -28 31 -17 62 -30 70 -30 24 0 -12 -32 -107
-96 -48 -32 -119 -89 -158 -126 -39 -37 -82 -72 -95 -76 -39 -15 -122 -23
-152 -15 l-28 8 27 35 c76 101 106 216 81 313 -7 32 -10 57 -5 57 4 0 36 -10
70 -22z m497 -329 c33 -71 109 -159 170 -199 48 -30 57 -32 112 -27 55 5 66 2
146 -37 l86 -42 -61 -17 c-61 -17 -202 -98 -202 -116 0 -10 -45 -26 -90 -34
-15 -3 -8 -5 18 -6 49 -1 54 -14 15 -36 -21 -12 -23 -15 -7 -12 16 3 26 -6 47
-43 14 -26 62 -81 106 -123 54 -51 75 -77 65 -81 -8 -3 -14 -13 -14 -23 0 -11
3 -14 8 -7 12 18 56 44 74 44 9 0 29 -5 44 -10 l27 -11 -30 -32 c-27 -29 -37
-43 -85 -115 l-16 -25 -22 52 c-13 28 -28 51 -35 51 -7 0 -20 11 -29 25 -9 14
-25 25 -34 25 -10 0 -26 8 -36 18 -69 70 -107 117 -114 144 -4 18 -11 28 -14
22 -9 -14 26 -89 56 -118 15 -15 20 -27 13 -29 -7 -2 0 -10 16 -17 27 -13 37
-30 16 -30 -5 0 -7 -4 -4 -10 3 -5 18 -10 33 -10 45 0 58 -15 25 -29 -15 -6
-39 -28 -52 -49 -13 -20 -37 -56 -53 -79 -31 -45 -38 -95 -20 -130 17 -31 15
-34 -15 -27 -76 18 -113 61 -113 131 0 28 -3 34 -10 23 -5 -8 -10 -25 -10 -38
0 -22 -1 -22 -70 13 -50 25 -83 35 -117 35 -71 0 -123 18 -160 55 -28 28 -33
40 -33 82 0 76 32 133 147 258 30 34 53 88 63 155 4 25 11 53 15 64 6 14 5 18
-6 14 -8 -2 -18 -22 -23 -44 -4 -21 -12 -48 -17 -59 -4 -11 -11 -30 -14 -43
-5 -18 -10 -20 -20 -12 -7 6 -32 16 -56 23 -23 7 -44 18 -47 25 -2 8 2 10 13
5 15 -5 16 -3 5 17 -17 31 -4 85 25 108 13 11 44 23 67 27 24 4 37 9 30 12 -9
3 -1 16 22 39 32 31 36 41 36 87 0 91 10 125 52 172 22 25 43 45 46 45 4 -1
18 -24 31 -51z m-279 -517 c0 -3 -10 -17 -22 -30 l-23 -25 22 12 c12 6 26 19
31 28 11 19 32 9 32 -17 0 -41 -97 -82 -152 -65 l-22 8 25 19 c13 11 24 23 24
27 0 3 6 20 13 38 13 29 16 31 43 21 16 -5 29 -13 29 -16z m-1020 -105 c0 -27
-63 -93 -79 -83 -6 4 -11 24 -11 45 0 31 4 40 21 44 19 5 21 2 16 -26 -6 -32
3 -18 17 26 8 26 36 21 36 -6z m1924 -189 c35 -31 69 -184 64 -284 -3 -58 -9
-80 -33 -119 -17 -27 -35 -50 -40 -52 -6 -2 -25 42 -44 97 -18 55 -43 113 -57
128 l-24 27 26 -47 26 -48 -34 0 c-31 0 -34 4 -51 53 -29 85 -30 91 -7 119 18
24 24 26 48 17 15 -6 35 -18 45 -26 9 -9 20 -13 23 -10 4 3 -14 19 -40 35
l-46 29 30 41 c47 66 74 75 114 40z m-2073 -93 c59 -112 67 -155 43 -230 -15
-50 -92 -155 -112 -155 -4 0 -15 27 -24 59 -17 56 -64 128 -76 116 -3 -3 5
-17 19 -31 l24 -26 -55 21 c-65 24 -100 60 -100 102 0 33 20 79 44 98 14 12
16 10 16 -10 1 -13 7 -35 15 -49 l15 -25 -6 30 c-4 17 -7 32 -6 35 0 37 10 55
56 104 74 80 87 77 147 -39z m-411 46 c5 -11 10 -38 10 -60 0 -22 5 -60 12
-85 9 -34 9 -50 -2 -75 -15 -37 -76 -92 -134 -121 l-41 -20 -8 42 c-4 24 -6
62 -5 85 2 22 0 39 -4 36 -5 -2 -8 -19 -8 -36 l-1 -32 -29 33 c-36 39 -38 76
-7 123 21 32 86 84 94 75 2 -2 -1 -15 -7 -30 -6 -18 -6 -25 0 -21 6 3 10 13
10 22 0 21 67 83 90 83 11 0 24 -9 30 -19z m2580 -17 c38 -33 52 -60 75 -150
18 -71 15 -164 -5 -164 -6 0 -24 12 -41 28 -28 25 -31 32 -32 99 -2 70 -2 71
17 55 22 -19 17 -8 -16 40 -22 32 -50 118 -38 118 5 0 22 -12 40 -26z m-1933
-40 c75 -56 95 -94 95 -181 -1 -80 -28 -169 -47 -153 -7 6 -16 23 -20 37 -7
30 -45 87 -52 79 -2 -2 4 -17 14 -33 15 -23 15 -26 1 -15 -9 7 -44 17 -79 23
-34 5 -66 12 -70 15 -4 2 -3 21 3 41 5 20 8 49 6 65 -6 36 6 36 66 -2 26 -17
46 -25 44 -18 -2 7 -26 25 -51 39 -63 34 -70 43 -62 70 9 26 61 79 79 79 6 0
39 -21 73 -46z m1572 20 c12 -15 21 -31 21 -36 0 -5 16 -42 36 -83 27 -56 34
-81 29 -104 -7 -32 -62 -121 -75 -121 -5 0 -22 28 -38 63 -17 35 -38 69 -48
77 -17 14 -17 14 -1 -10 l16 -25 -45 3 c-33 3 -49 10 -64 29 -26 34 -25 52 6
94 14 19 29 40 33 48 12 19 46 6 94 -38 24 -21 36 -28 30 -16 -16 30 -54 62
-87 75 l-29 11 28 29 c35 37 67 38 94 4z m-2122 -176 c-3 -8 -6 -5 -6 6 -1 11
2 17 5 13 3 -3 4 -12 1 -19z"/>
<path d="M3883 6356 c4 -9 2 -16 -3 -16 -6 0 -10 -4 -10 -10 0 -5 7 -10 15
-10 8 0 15 -7 15 -16 0 -22 55 -74 78 -74 11 0 23 -6 25 -12 4 -8 8 -4 13 10
5 17 9 20 20 11 7 -6 21 -9 31 -6 15 3 14 6 -7 14 -14 6 -36 30 -50 52 -19 32
-33 42 -60 47 -19 4 -44 11 -54 16 -16 9 -18 7 -13 -6z"/>
<path d="M3250 6170 c0 -5 10 -10 23 -10 19 -1 18 -3 -9 -14 -35 -15 -88 -79
-82 -97 2 -7 14 4 26 25 13 22 36 43 57 51 47 20 68 18 26 -2 -82 -41 -116
-193 -53 -234 14 -8 12 -9 -10 -4 -16 3 -28 1 -28 -5 0 -14 46 -23 83 -16 l32
6 -27 -17 c-42 -26 -33 -38 9 -13 26 15 33 17 23 5 -25 -31 -91 -57 -131 -53
-44 4 -53 -8 -14 -18 77 -19 147 32 205 147 22 42 51 86 65 97 17 13 21 22 13
25 -7 3 4 12 26 21 21 10 36 20 33 23 -4 3 5 20 18 38 41 52 28 53 -20 1 -39
-42 -48 -48 -72 -42 -15 4 -44 23 -63 41 -47 46 -130 74 -130 45z m114 -82 c9
-12 16 -36 15 -53 l0 -30 -12 35 c-18 51 -45 52 -53 1 -5 -32 -14 -45 -40 -62
-19 -11 -34 -26 -34 -32 0 -7 -5 -5 -10 4 -10 18 -2 61 10 54 5 -3 11 -1 15 5
3 5 1 10 -4 10 -19 0 -12 27 15 59 32 38 75 42 98 9z m-44 -134 c-10 -45 -17
-51 -38 -38 -27 17 -25 38 5 56 40 23 42 22 33 -18z"/>
<path d="M3278 6003 c7 -3 16 -2 19 1 4 3 -2 6 -13 5 -11 0 -14 -3 -6 -6z"/>
<path d="M3707 6109 c-12 -73 -60 -161 -126 -231 -74 -80 -81 -101 -10 -33 95
92 156 209 147 281 -3 25 -5 22 -11 -17z"/>
<path d="M4001 6016 c-42 -41 -87 -84 -101 -95 -14 -11 -21 -20 -16 -21 5 0 1
-10 -10 -21 -19 -22 -19 -22 1 -11 22 11 221 222 209 222 -4 0 -41 -34 -83
-74z"/>
<path d="M3265 5671 c-18 -10 -45 -44 -64 -80 -18 -34 -41 -67 -52 -74 -24
-15 -25 -28 -1 -20 14 5 15 3 5 -8 -7 -7 -13 -18 -13 -23 1 -18 29 24 72 107
31 60 49 82 77 97 20 11 29 19 21 20 -8 0 -29 -8 -45 -19z"/>
<path d="M4430 5423 c-60 -10 -251 -66 -257 -76 -9 -14 86 -1 170 25 84 25
160 17 165 -19 3 -22 -16 -72 -45 -113 l-17 -25 28 25 c33 29 56 71 56 100 0
20 1 20 30 5 46 -24 35 -3 -16 29 -29 18 -42 31 -34 36 24 15 -22 23 -80 13z"/>
<path d="M5103 3795 c-3 -9 -3 -18 -1 -21 3 -3 8 4 11 16 6 23 -1 27 -10 5z"/>
<path d="M5081 3614 c0 -11 3 -14 6 -6 3 7 2 16 -1 19 -3 4 -6 -2 -5 -13z"/>
<path d="M5011 3589 c-6 -18 -9 -34 -7 -36 2 -2 9 10 15 28 6 18 9 34 7 36 -2
2 -9 -10 -15 -28z"/>
<path d="M5056 3585 c-3 -9 -6 -22 -5 -28 0 -7 5 -1 10 12 5 13 8 26 5 28 -2
2 -6 -3 -10 -12z"/>
<path d="M4915 3250 c-3 -5 -1 -10 4 -10 6 0 11 5 11 10 0 6 -2 10 -4 10 -3 0
-8 -4 -11 -10z"/>
<path d="M4977 3240 c-3 -11 -3 -20 -1 -20 2 0 8 9 14 20 6 11 7 20 2 20 -6 0
-12 -9 -15 -20z"/>
<path d="M4901 3214 c0 -11 3 -14 6 -6 3 7 2 16 -1 19 -3 4 -6 -2 -5 -13z"/>
<path d="M4914 3064 c0 -30 2 -33 9 -16 5 12 5 26 0 36 -7 12 -9 7 -9 -20z"/>
<path d="M4893 3025 c0 -22 2 -30 4 -17 2 12 2 30 0 40 -3 9 -5 -1 -4 -23z"/>
<path d="M1622 3875 c2 -5 18 -39 36 -75 18 -36 32 -71 32 -79 0 -8 9 -44 20
-81 11 -36 21 -80 24 -96 2 -16 6 -36 9 -44 10 -24 46 -214 68 -355 11 -71 23
-206 26 -300 8 -210 23 -182 23 42 1 294 -82 711 -179 900 -26 52 -68 114 -59
88z"/>
<path d="M1660 3735 c0 -14 4 -25 9 -25 4 0 6 11 3 25 -2 14 -6 25 -8 25 -2 0
-4 -11 -4 -25z"/>
<path d="M1690 3635 c0 -5 5 -17 10 -25 5 -8 10 -10 10 -5 0 6 -5 17 -10 25
-5 8 -10 11 -10 5z"/>
<path d="M1684 3554 c0 -21 3 -30 8 -22 10 16 10 45 1 51 -5 3 -8 -10 -9 -29z"/>
<path d="M1711 3564 c0 -11 3 -14 6 -6 3 7 2 16 -1 19 -3 4 -6 -2 -5 -13z"/>
<path d="M1662 3500 c0 -14 2 -19 5 -12 2 6 2 18 0 25 -3 6 -5 1 -5 -13z"/>
<path d="M1692 3465 c0 -16 2 -22 5 -12 2 9 2 23 0 30 -3 6 -5 -1 -5 -18z"/>
<path d="M1728 3452 c-3 -12 -2 -22 3 -22 5 0 9 -5 9 -10 0 -7 -6 -7 -20 0
-25 13 -25 10 0 -68 11 -36 20 -92 20 -127 0 -35 4 -66 9 -70 24 -14 26 204 2
228 -15 15 -14 30 1 21 7 -5 8 -3 3 5 -4 7 -10 25 -14 39 -7 26 -8 26 -13 4z"/>
<path d="M1771 3174 c0 -11 3 -14 6 -6 3 7 2 16 -1 19 -3 4 -6 -2 -5 -13z"/>
<path d="M1790 3136 c0 -8 4 -17 9 -20 5 -4 7 3 4 14 -6 23 -13 26 -13 6z"/>
<path d="M1723 3120 c-1 -11 2 -22 8 -25 5 -4 9 5 9 19 0 30 -15 35 -17 6z"/>
<path d="M1752 3110 c0 -14 2 -19 5 -12 2 6 2 18 0 25 -3 6 -5 1 -5 -13z"/>
<path d="M1800 3061 c0 -11 4 -22 9 -25 4 -3 6 6 3 19 -5 30 -12 33 -12 6z"/>
<path d="M1740 3056 c0 -8 4 -17 9 -20 5 -4 7 3 4 14 -6 23 -13 26 -13 6z"/>
<path d="M1781 3054 c0 -11 3 -14 6 -6 3 7 2 16 -1 19 -3 4 -6 -2 -5 -13z"/>
<path d="M1792 2980 c0 -14 2 -19 5 -12 2 6 2 18 0 25 -3 6 -5 1 -5 -13z"/>
<path d="M1766 2963 c-6 -14 -5 -15 5 -6 7 7 10 15 7 18 -3 3 -9 -2 -12 -12z"/>
<path d="M1781 2924 c0 -11 3 -14 6 -6 3 7 2 16 -1 19 -3 4 -6 -2 -5 -13z"/>
<path d="M1817 2934 c-4 -4 -7 -14 -7 -23 0 -11 3 -12 11 -4 6 6 10 16 7 23
-2 6 -7 8 -11 4z"/>
<path d="M1822 2810 c0 -14 2 -19 5 -12 2 6 2 18 0 25 -3 6 -5 1 -5 -13z"/>
<path d="M2888 2862 c1 -140 7 -215 18 -259 15 -59 15 -64 -2 -100 -12 -24
-46 -58 -92 -93 -71 -53 -132 -127 -132 -158 0 -9 13 5 29 30 20 31 55 64 106
98 65 44 105 86 118 125 2 6 24 -8 48 -30 24 -22 66 -53 92 -70 26 -16 57 -45
68 -63 27 -47 35 -33 10 17 -13 24 -44 58 -79 83 -71 52 -85 69 -118 138 -25
51 -28 68 -34 240 -5 128 -11 194 -21 212 -12 24 -14 4 -11 -170z"/>
<path d="M4610 3252 c0 -7 22 -55 49 -105 27 -51 56 -117 65 -147 22 -81 48
-296 44 -367 -5 -79 -21 -97 -141 -159 -90 -47 -167 -106 -167 -129 0 -7 15 2
33 19 36 34 48 40 152 85 38 16 80 39 92 51 l22 21 11 -39 c5 -22 18 -46 27
-53 14 -12 15 -11 10 6 -29 99 -29 104 -18 136 33 96 -10 382 -79 523 -31 63
-100 173 -100 158z"/>
</g>
</svg>
