<?xml version="1.0" standalone="no"?>
<!DOCTYPE svg PUBLIC "-//W3C//DTD SVG 20010904//EN"
 "http://www.w3.org/TR/2001/REC-SVG-20010904/DTD/svg10.dtd">
<svg version="1.0" xmlns="http://www.w3.org/2000/svg"
 width="300.000000pt" height="300.000000pt" viewBox="0 0 300.000000 300.000000"
 preserveAspectRatio="xMidYMid meet">
<metadata>
Created by potrace 1.10, written by Peter Selinger 2001-2011
</metadata>
<g transform="translate(0.000000,300.000000) scale(0.100000,-0.100000)"
fill="#000000" stroke="none">
<path d="M342 2808 c-26 -13 -39 -52 -24 -71 22 -26 2 -62 -50 -91 -58 -33
-74 -63 -84 -159 -6 -60 -5 -66 15 -76 12 -7 27 -9 33 -5 7 4 8 3 4 -4 -5 -8
0 -12 13 -12 32 0 51 -11 51 -29 0 -43 121 -57 165 -18 24 20 25 25 15 52 -6
16 -9 44 -5 61 l6 32 39 -19 c21 -10 47 -19 56 -19 28 0 43 32 42 85 l-1 50
-6 -50 c-6 -51 -16 -75 -30 -75 -8 0 -11 15 -11 69 -1 44 17 64 49 58 14 -3
38 -3 53 0 21 4 27 12 30 40 2 19 0 36 -4 39 -4 3 -8 -8 -8 -24 0 -17 -6 -32
-15 -36 -11 -4 -15 2 -15 22 0 15 -3 37 -6 50 -5 16 -3 22 7 20 8 -2 17 -7 21
-13 4 -5 8 0 8 13 0 19 -5 22 -35 22 -43 0 -68 -34 -39 -54 15 -12 15 -13 0
-19 -9 -4 -16 -15 -16 -26 0 -10 -6 -21 -14 -24 -11 -4 -16 4 -19 31 l-4 37
-1 -37 c-3 -55 -17 -46 -19 12 -1 47 10 62 28 37 3 -5 9 -1 12 8 8 19 -10 28
-50 23 -22 -2 -29 -9 -31 -30 -4 -33 -32 -38 -60 -10 -18 18 -19 18 -28 -2 -5
-11 -14 -21 -21 -23 -17 -6 -44 53 -38 80 5 20 11 22 42 19 23 -3 31 -7 22
-13 -7 -4 -10 -11 -6 -15 10 -10 24 6 32 36 12 51 -47 84 -103 58z m69 -8 c10
-6 19 -17 19 -25 0 -18 -12 -19 -29 -2 -10 10 -11 9 -6 -5 5 -13 2 -15 -14
-11 -11 3 -19 9 -16 13 3 5 0 10 -7 12 -15 5 -1 28 18 28 9 0 24 -5 35 -10z
m119 -160 c0 -5 -7 -10 -15 -10 -8 0 -15 -5 -15 -11 0 -20 21 -49 36 -49 24 0
12 -35 -14 -38 -18 -3 -22 1 -22 22 0 14 -5 26 -11 26 -6 0 -8 -9 -4 -20 10
-30 -2 -41 -30 -28 -18 8 -36 7 -76 -6 -55 -18 -79 -16 -79 9 0 8 -8 15 -18
15 -13 0 -18 -8 -17 -27 0 -21 -5 -29 -22 -31 -22 -3 -22 -3 -2 -23 28 -28 23
-39 -17 -39 l-35 0 7 58 c3 31 11 59 15 60 5 2 9 14 9 26 0 30 18 46 53 46 16
0 26 4 22 10 -3 6 3 10 15 10 12 0 18 -4 15 -10 -3 -6 4 -10 17 -10 16 0 19
-3 10 -9 -10 -6 -9 -10 7 -14 13 -3 19 -1 15 5 -4 6 1 8 14 4 15 -5 24 -1 32
14 12 22 60 28 60 8 0 -9 3 -10 8 -2 6 9 19 17 40 23 1 1 2 -3 2 -9z m-65
-156 c0 -21 -5 -29 -17 -28 -22 2 -22 0 -2 -20 13 -14 13 -16 1 -16 -9 0 -18
6 -20 13 -4 8 -6 7 -6 -3 -1 -8 9 -20 21 -25 12 -6 23 -15 25 -20 5 -18 -20
-43 -47 -47 -20 -2 -26 2 -28 20 -4 26 -27 25 -27 -1 0 -9 -4 -16 -10 -16 -26
3 -35 14 -35 41 0 17 4 27 10 23 6 -3 13 1 16 9 7 19 25 22 22 4 -2 -6 5 -14
15 -16 9 -2 17 2 17 8 0 6 -4 9 -8 6 -5 -3 -9 8 -9 24 0 16 6 31 14 34 7 3 13
11 13 18 -1 7 -18 -7 -39 -31 -22 -25 -44 -41 -50 -37 -6 4 -9 12 -6 17 4 5 1
9 -5 9 -17 0 41 51 74 65 16 7 40 9 55 6 20 -6 26 -14 26 -37z"/>
<path d="M2360 2805 c-14 -17 -18 -122 -7 -166 6 -22 14 -27 53 -33 55 -7 62
-4 80 39 l13 33 88 -3 c107 -3 98 0 100 -26 3 -30 11 -36 66 -43 47 -7 48 -7
62 28 20 48 20 135 0 142 -8 4 -15 15 -15 26 0 17 -6 19 -47 16 -43 -3 -50 -6
-63 -35 l-15 -33 -88 0 c-80 0 -91 2 -108 23 -10 12 -18 28 -19 35 0 18 -84
16 -100 -3z m98 -63 c16 -22 19 -35 12 -62 -7 -29 -8 -31 -9 -10 -1 22 -3 23
-12 8 -22 -39 -59 -8 -59 51 0 47 39 55 68 13z m321 14 c6 -7 9 -24 7 -37 -3
-13 -5 -32 -5 -41 -1 -24 -26 -23 -51 2 -20 20 -20 20 -20 -4 0 -20 6 -26 33
-29 32 -4 32 -4 -3 -3 -34 1 -35 2 -38 48 -3 39 1 49 20 62 28 20 42 20 57 2z
m-366 -109 c31 -4 31 -4 -5 -5 l-38 -2 2 53 2 52 3 -47 c4 -44 6 -47 36 -51z
m195 86 c-21 -2 -55 -2 -75 0 -21 2 -4 4 37 4 41 0 58 -2 38 -4z"/>
<path d="M1813 2729 c-30 -9 -31 -12 -35 -67 -6 -72 8 -96 63 -110 43 -11 87
1 104 28 3 5 15 10 25 10 23 0 83 -121 94 -188 6 -41 5 -42 -21 -42 -15 0 -45
-9 -67 -19 -23 -10 -63 -21 -91 -24 -27 -2 -63 -10 -80 -17 -38 -15 -161 -16
-179 -1 -11 9 -12 19 -3 49 6 20 17 41 24 45 7 4 13 13 13 19 0 7 -5 6 -15 -2
-16 -14 -20 -3 -6 19 5 7 13 11 19 7 10 -6 26 23 17 32 -3 3 -5 0 -5 -7 0 -7
-4 -9 -10 -6 -15 9 -12 23 6 27 14 3 13 6 -4 25 -10 13 -21 21 -23 19 -7 -7
-9 69 -2 84 4 10 9 1 14 -25 6 -38 6 -38 4 9 -2 43 -8 54 -38 82 -63 58 -135
65 -222 22 -65 -33 -75 -46 -75 -99 0 -58 9 -87 21 -67 7 10 9 9 9 -4 0 -11
-8 -18 -20 -18 -11 0 -20 -7 -20 -15 0 -8 5 -15 10 -15 6 0 10 -7 10 -16 0
-14 -2 -14 -16 -3 -15 12 -15 10 0 -24 8 -21 22 -45 31 -53 15 -15 20 -69 9
-97 -7 -19 -109 -13 -167 9 -20 8 -60 14 -88 14 -35 0 -58 6 -78 21 -15 11
-47 23 -70 26 -29 4 -41 10 -37 19 3 7 8 30 12 51 9 52 61 153 79 153 8 0 18
-8 24 -17 8 -14 23 -18 72 -18 40 1 64 5 67 13 2 7 10 12 18 12 15 0 19 27 14
90 -5 70 -9 72 -130 68 -90 -2 -113 -6 -137 -24 -29 -21 -205 -274 -248 -356
-18 -34 -25 -63 -25 -100 l1 -53 84 -53 c91 -58 172 -90 245 -99 60 -7 92 -45
115 -134 9 -35 30 -89 45 -119 38 -73 76 -269 61 -313 -6 -16 -11 -46 -11 -65
0 -29 -2 -33 -15 -22 -27 23 -16 -6 14 -34 26 -25 140 -70 151 -59 3 2 -6 13
-20 23 -39 30 -11 23 34 -8 36 -25 47 -27 135 -27 53 0 105 4 116 9 11 5 26 8
32 7 45 -7 163 59 163 91 0 7 -5 6 -14 -1 -11 -9 -15 2 -20 68 -9 101 20 260
63 344 16 31 35 82 41 113 7 31 20 71 31 89 17 29 25 33 78 38 78 8 155 38
225 87 31 22 70 47 86 55 28 14 29 17 24 68 -7 65 -29 109 -137 272 -99 150
-139 193 -193 206 -49 11 -139 10 -181 -2z m225 -39 c56 -41 222 -289 222
-333 0 -10 6 -14 14 -11 14 5 36 -61 36 -109 0 -29 -23 -52 -45 -43 -9 3 -19
-3 -25 -14 -6 -11 -23 -23 -38 -27 -15 -3 -47 -17 -71 -30 -24 -12 -50 -23
-57 -23 -8 0 -14 -4 -14 -10 0 -5 -17 -10 -37 -10 -48 1 -136 24 -127 33 4 4
2 7 -5 7 -6 0 -20 -14 -29 -31 -9 -17 -26 -43 -37 -57 -11 -15 -30 -56 -42
-92 -13 -36 -34 -75 -49 -87 -32 -29 -16 -30 20 -2 15 12 30 38 37 62 5 23 19
53 29 67 l19 25 -6 -37 c-3 -20 -2 -45 1 -55 7 -17 8 -17 22 1 8 11 14 17 14
13 0 -17 -36 -95 -57 -124 -12 -17 -23 -35 -23 -40 0 -5 -7 -19 -17 -32 -9
-13 -17 -40 -19 -60 l-2 -36 14 30 c14 29 15 29 9 -24 -3 -30 -13 -68 -22 -84
-12 -24 -14 -47 -9 -99 5 -58 3 -70 -12 -85 -26 -25 -83 -55 -108 -59 -21 -2
-20 -1 3 23 22 21 24 30 19 64 -4 27 0 56 14 96 21 60 20 74 -5 53 -20 -17
-20 0 2 44 15 33 15 37 0 54 -9 10 -17 24 -17 30 0 6 -9 13 -19 17 -11 3 -22
12 -25 20 -3 8 -20 24 -38 35 -25 15 -33 27 -34 50 -1 26 1 30 15 24 29 -13
88 -16 95 -5 4 6 -9 12 -31 16 -65 11 -83 22 -83 52 0 21 -3 24 -9 14 -11 -16
-7 -146 4 -173 4 -10 15 -18 24 -18 17 0 121 -66 121 -77 0 -3 -9 -21 -21 -39
-18 -29 -21 -51 -22 -140 0 -140 -15 -156 -141 -150 -97 4 -105 10 -95 81 5
41 4 63 -7 83 -17 32 -18 56 -4 82 8 15 6 24 -10 40 -12 12 -20 33 -20 55 0
28 -5 37 -29 50 -17 8 -33 21 -37 27 -5 9 -2 8 9 -1 16 -13 17 -12 7 13 -5 15
-8 32 -5 37 3 4 -2 21 -12 35 l-18 28 25 -9 c63 -22 200 2 200 35 0 5 -16 0
-35 -12 -51 -29 -139 -22 -189 15 -41 32 -55 55 -58 94 -1 15 -10 39 -20 52
-10 13 -18 30 -18 38 0 22 -31 77 -39 67 -7 -11 -36 -15 -107 -17 -70 -1 -137
26 -178 74 -22 26 -39 37 -49 33 -23 -9 -40 32 -34 81 9 64 48 160 58 144 6
-10 16 3 34 44 14 32 25 60 25 63 0 10 71 116 76 112 2 -3 -1 -20 -7 -38 -9
-25 -9 -37 0 -53 11 -16 8 -27 -18 -69 -33 -52 -37 -63 -21 -53 6 4 10 -6 10
-24 0 -19 -10 -39 -28 -58 -33 -32 -52 -65 -52 -87 0 -30 30 -16 50 24 12 23
28 44 36 47 40 15 154 -61 154 -103 0 -29 19 -13 22 19 3 31 4 32 52 31 43 0
53 -5 82 -37 37 -40 43 -60 17 -50 -12 4 -11 0 5 -11 12 -10 22 -23 22 -31 0
-29 152 -97 173 -76 7 7 1 31 -18 75 -15 35 -25 70 -23 77 2 7 12 -9 22 -34
23 -61 42 -63 37 -4 -2 13 5 17 29 17 24 0 35 7 51 35 12 19 23 35 25 35 2 0
1 -15 -1 -32 l-5 -33 11 35 c6 19 13 41 15 48 7 26 20 10 21 -29 2 -40 16 -69
34 -69 5 0 0 17 -11 37 -23 43 -20 51 12 29 25 -18 63 -22 53 -6 -4 6 8 10 29
10 l35 0 -22 -38 c-49 -85 -83 -113 -165 -137 -50 -15 -72 -36 -72 -69 0 -28
29 -17 32 11 2 22 12 30 52 45 27 9 44 12 38 6 -27 -27 -9 -27 26 0 20 16 53
40 73 55 25 18 39 37 43 60 10 53 69 97 132 97 20 0 24 -5 24 -28 0 -28 11
-48 41 -70 15 -11 16 -8 12 31 -7 56 24 95 80 104 36 5 41 3 83 -43 51 -57 60
-40 14 25 -43 59 -53 88 -34 99 12 7 7 22 -31 91 -24 46 -52 89 -61 96 -9 6
-14 17 -10 23 4 7 1 12 -8 12 -8 0 -18 -4 -21 -10 -3 -5 -14 -10 -23 -10 -9 0
-24 -5 -32 -10 -13 -8 -13 -11 -1 -19 11 -7 10 -11 -7 -20 -11 -6 -25 -11 -31
-11 -14 0 -14 73 0 87 7 7 1 14 -23 23 -18 7 -36 12 -40 11 -5 0 -8 4 -8 9 0
6 -8 10 -17 10 -15 0 -16 2 -3 10 8 5 56 10 106 10 85 0 94 -2 132 -30z m-848
-50 c0 -47 -3 -60 -15 -60 -8 0 -15 -4 -15 -10 0 -5 -4 -10 -10 -10 -5 0 -10
16 -10 35 0 19 -3 35 -8 35 -4 0 -6 -18 -4 -40 3 -25 0 -40 -7 -40 -6 0 -12 8
-12 18 -1 16 -2 16 -6 0 -5 -19 -18 -24 -26 -10 -3 4 -8 26 -11 48 -7 41 -7
41 36 59 24 10 46 19 50 19 3 1 10 4 14 9 18 17 24 3 24 -53z m388 47 c8 -9 4
-21 -14 -45 -20 -26 -28 -29 -39 -19 -7 6 -11 15 -8 20 7 12 -11 8 -35 -9 -44
-31 -31 -8 16 28 52 40 65 44 80 25z m-569 -52 c16 -8 31 -25 33 -39 3 -14 1
-23 -3 -20 -5 3 -9 11 -9 17 -1 7 -15 21 -33 32 -17 11 -33 29 -35 40 -2 18
-2 19 8 2 6 -9 24 -24 39 -32z m443 25 c-9 -23 -92 -77 -92 -60 0 24 22 51 53
64 44 20 47 19 39 -4z m148 -96 c0 -52 -2 -55 -22 -53 -52 6 -92 -30 -42 -37
33 -5 65 8 74 30 7 16 9 12 9 -23 1 -25 -5 -52 -13 -60 -7 -9 -16 -29 -19 -46
-6 -29 -6 -29 10 5 9 19 17 30 20 24 6 -18 -22 -89 -34 -87 -7 2 -15 -7 -18
-18 -9 -26 -61 -49 -96 -42 -37 7 -89 63 -99 107 -4 21 -4 34 1 30 5 -3 9 -14
9 -24 0 -10 16 -37 37 -59 28 -32 43 -41 67 -40 l31 1 -29 7 c-37 8 -31 26 7
22 21 -2 27 2 27 17 0 15 -5 18 -24 15 -13 -3 -27 0 -30 6 -5 7 8 11 38 11 25
0 46 3 46 8 0 4 -27 5 -61 4 -45 -3 -58 -7 -50 -15 6 -6 11 -18 11 -26 0 -22
-40 24 -45 52 -3 12 -14 40 -25 62 -11 21 -20 53 -19 70 l1 30 14 -34 c14 -30
18 -33 47 -27 30 6 32 4 34 -23 1 -18 -4 -31 -12 -35 -20 -7 -19 -26 1 -26 8
0 12 -5 9 -10 -7 -12 37 -4 69 12 13 7 21 6 27 -3 7 -11 9 -10 9 3 0 20 -22
36 -28 20 -2 -7 -15 -12 -29 -12 -24 0 -25 2 -20 45 5 52 -8 65 -63 65 -20 0
-29 4 -24 11 3 6 0 15 -7 20 -11 8 -8 14 14 34 30 27 58 35 39 12 -17 -20 106
-3 126 17 26 26 32 19 32 -40z m-877 -206 c-37 -86 -53 -113 -53 -87 0 25 72
169 85 169 2 0 -13 -37 -32 -82z m-8 -110 c-9 -62 -10 -65 -29 -49 -13 11 -12
18 7 57 11 24 23 44 25 44 2 0 1 -24 -3 -52z m652 -7 c-12 -32 -12 -41 -2 -41
15 0 28 -27 19 -41 -6 -11 -53 12 -76 38 -23 25 -9 52 15 29 18 -18 19 -16 37
39 7 22 15 35 17 29 2 -6 -3 -30 -10 -53z m-9 -118 c19 -8 32 -16 29 -19 -8
-8 -98 36 -92 45 3 5 1 12 -5 16 -5 3 -10 12 -10 18 0 7 10 -1 22 -17 12 -16
37 -35 56 -43z m-561 31 c25 -15 70 -37 101 -50 41 -17 50 -24 32 -24 -26 0
-190 79 -190 92 0 13 9 10 57 -18z m338 -146 c26 -56 31 -78 16 -78 -5 0 -15
15 -21 34 -6 19 -18 40 -26 47 -8 7 -20 21 -25 31 -8 15 -6 18 11 18 15 0 27
-14 45 -52z m65 -135 c0 -22 -16 -15 -28 12 -17 36 -15 41 8 20 11 -10 20 -24
20 -32z m77 -195 c23 -26 49 -107 59 -188 13 -110 7 -130 -37 -130 l-32 0 8
43 c4 23 6 83 5 132 -1 69 -6 98 -21 123 -10 18 -19 35 -19 38 0 11 18 2 37
-18z m-52 -24 c9 -14 21 -54 26 -88 10 -70 1 -205 -13 -184 -4 7 -5 42 -2 78
4 49 1 83 -15 140 -12 41 -21 76 -21 77 0 9 10 0 25 -23z"/>
<path d="M881 2211 c26 -35 64 -50 82 -32 8 8 4 11 -15 11 -14 0 -31 7 -38 16
-8 8 -22 20 -33 25 -17 9 -16 7 4 -20z"/>
<path d="M1570 2184 c0 -7 8 -22 18 -35 14 -16 24 -20 38 -14 18 8 18 8 -1 12
-11 3 -28 15 -37 26 -10 12 -18 17 -18 11z"/>
<path d="M2006 2179 c6 -11 61 -12 68 -1 2 4 -13 8 -35 8 -21 1 -36 -2 -33 -7z"/>
<path d="M1521 2140 c-12 -22 -18 -40 -13 -40 4 0 18 18 31 40 12 22 18 40 13
40 -4 0 -18 -18 -31 -40z"/>
<path d="M1505 1987 c-4 -10 -3 -28 2 -39 13 -29 21 -11 13 27 -6 25 -8 27
-15 12z"/>
<path d="M1260 1937 c0 -18 28 -42 37 -33 9 8 -9 38 -25 44 -7 2 -12 -3 -12
-11z"/>
<path d="M1697 1922 c-13 -14 -15 -22 -7 -27 16 -10 33 9 28 30 -3 16 -5 15
-21 -3z"/>
<path d="M1762 1827 c-24 -25 -28 -37 -12 -37 11 0 45 48 38 55 -2 3 -14 -5
-26 -18z"/>
<path d="M1427 1721 c-72 -42 -76 -52 -10 -29 42 15 59 26 60 39 1 11 1 19 0
19 -1 0 -24 -13 -50 -29z"/>
<path d="M1455 1593 c-11 -3 -24 -9 -29 -14 -17 -15 29 -10 50 6 19 15 15 16
-21 8z"/>
<path d="M1524 1585 c11 -8 29 -15 40 -15 28 0 8 16 -29 24 -28 6 -29 5 -11
-9z"/>
<path d="M1490 1462 c0 -7 -14 -12 -32 -12 l-33 -1 40 -14 c27 -10 46 -12 60
-6 11 5 27 12 35 14 8 3 1 6 -15 6 -17 1 -36 6 -43 13 -9 9 -12 9 -12 0z"/>
<path d="M366 2721 c-4 -5 -1 -11 4 -13 6 -2 12 -13 13 -26 1 -12 6 -21 12
-19 9 4 9 26 0 55 -5 14 -21 16 -29 3z"/>
<path d="M2432 2508 c-14 -14 -16 -122 -3 -147 11 -20 76 -27 97 -10 8 6 14
20 14 30 0 17 8 19 84 19 83 0 84 0 89 -28 5 -25 11 -28 46 -30 31 -2 43 2 55
20 19 27 21 93 4 131 -12 25 -17 27 -58 25 -37 -3 -46 -7 -48 -25 -4 -25 -38
-40 -109 -46 -47 -4 -52 -2 -57 20 -4 12 -11 23 -16 23 -6 0 -10 7 -10 15 0
19 -70 21 -88 3z m81 -52 c11 -8 17 -25 16 -47 -1 -19 -3 -26 -6 -16 -3 12
-11 16 -23 12 -13 -4 -22 1 -30 15 -22 41 6 64 43 36z m267 -21 c0 -38 -25
-50 -37 -17 -6 14 -8 13 -14 -8 -6 -21 -7 -19 -8 13 -1 23 3 36 9 32 6 -3 10
-1 10 4 0 6 9 11 20 11 16 0 20 -7 20 -35z"/>
<path d="M2501 2256 c-7 -9 -11 -38 -9 -73 l3 -58 41 -3 c35 -3 42 0 52 23 11
23 17 25 76 25 59 0 65 -2 68 -22 2 -18 11 -24 38 -26 41 -4 60 16 60 63 0 55
-21 85 -58 85 -26 0 -35 -5 -42 -25 -5 -14 -16 -25 -25 -25 -8 0 -15 -4 -15
-10 0 -5 -20 -10 -44 -10 -36 0 -46 4 -51 20 -3 11 -11 20 -16 20 -5 0 -9 7
-9 15 0 20 -53 20 -69 1z m279 -66 c0 -22 -7 -25 -29 -11 -16 10 -6 31 15 31
8 0 14 -9 14 -20z"/>
<path d="M396 2092 c-20 -8 -33 -18 -30 -23 3 -5 -2 -6 -10 -3 -23 9 -112 -81
-143 -145 -24 -49 -28 -68 -28 -146 0 -78 4 -97 28 -147 31 -64 94 -124 165
-159 39 -19 63 -24 137 -24 104 0 156 19 225 81 43 39 100 127 99 154 0 8 -7
2 -15 -15 -8 -16 -12 -21 -8 -10 3 11 8 33 11 50 5 22 8 25 12 12 4 -9 6 19 6
63 0 44 -2 73 -5 65 -3 -10 -10 1 -17 27 -6 24 -25 63 -42 88 -16 24 -27 48
-24 54 3 5 2 6 -3 3 -6 -3 -30 8 -54 24 -25 17 -64 36 -88 42 -25 7 -37 14
-28 17 8 3 -23 5 -69 6 -50 0 -97 -5 -119 -14z m263 -58 c144 -78 188 -238
110 -398 -33 -67 -37 -71 -104 -105 -61 -30 -79 -35 -145 -35 -94 0 -152 26
-215 96 -48 53 -75 122 -75 189 0 42 25 126 45 149 7 8 11 20 8 26 -5 14 55
66 68 58 5 -3 9 -1 9 5 0 5 24 19 53 30 75 30 175 24 246 -15z m-431 -131
c-16 -34 -22 -68 -22 -119 -1 -127 71 -236 192 -292 71 -32 177 -34 246 -4 25
12 46 19 46 16 0 -3 -21 -15 -48 -27 -70 -31 -179 -30 -252 4 -79 37 -125 81
-162 157 -28 57 -33 76 -32 142 0 55 6 88 21 123 12 26 24 47 27 47 3 0 -5
-21 -16 -47z"/>
<path d="M445 2046 c-48 -14 -99 -56 -76 -64 6 -2 9 -8 5 -13 -3 -5 0 -8 8 -7
9 2 12 -6 10 -26 -3 -26 -1 -28 13 -16 14 11 14 15 0 36 -8 13 -15 28 -15 33
0 19 42 33 109 36 77 4 97 0 105 -21 3 -8 2 -12 -4 -9 -6 3 -10 2 -10 -4 0 -6
-7 -8 -15 -5 -21 8 -19 25 3 18 15 -5 15 -4 -1 6 -10 7 -19 10 -20 8 -2 -1 -8
-18 -14 -35 -11 -32 -10 -33 15 -33 24 0 25 1 7 14 -17 12 -16 13 13 12 30 -1
48 -26 20 -26 -7 0 3 -10 22 -21 l35 -20 0 -130 c1 -126 0 -130 -20 -125 -11
2 -51 8 -90 12 -61 6 -74 11 -102 39 -26 26 -33 42 -33 71 -1 33 -2 36 -11 21
-15 -25 -3 -80 21 -102 11 -10 20 -24 20 -32 0 -7 11 -13 24 -13 20 0 25 -6
28 -35 2 -19 -1 -37 -7 -39 -5 -2 -2 -5 7 -5 9 -1 19 7 21 17 4 16 5 16 6 0 0
-10 5 -18 9 -18 5 0 7 14 4 30 -2 17 -8 30 -13 30 -5 0 -9 5 -9 10 0 6 9 10
20 10 16 0 19 -5 15 -23 -7 -26 9 -44 38 -44 11 0 17 8 17 24 0 13 -4 23 -10
23 -5 0 -10 -9 -10 -20 0 -32 -16 -23 -18 10 -2 28 0 30 33 30 27 0 37 -5 44
-22 l8 -22 6 23 c5 19 8 21 25 10 14 -9 30 -10 52 -3 41 11 61 61 61 146 0
177 -175 311 -346 264z m200 -73 c-3 -14 -2 -22 3 -20 4 3 9 -3 9 -14 2 -28
-16 -23 -27 7 -13 32 -12 37 0 29 6 -3 10 -1 10 4 0 6 -4 11 -10 11 -5 0 -10
4 -10 10 0 5 7 7 16 3 11 -4 14 -13 9 -30z m81 -84 c2 -7 8 -39 15 -69 9 -42
9 -65 0 -97 -17 -64 -56 -93 -70 -52 -3 11 -1 12 10 2 12 -9 15 -5 17 25 7 72
6 117 -2 155 -7 32 -6 37 10 37 16 0 17 2 4 11 -12 8 -12 10 -1 7 8 -2 15 -11
17 -19z"/>
<path d="M480 2010 c0 -8 -9 -10 -23 -7 -38 10 -52 -6 -38 -41 8 -19 18 -29
27 -25 10 4 11 10 4 23 -6 10 -10 25 -10 32 1 7 9 -1 18 -18 14 -25 21 -29 42
-24 27 6 40 37 16 37 -8 0 -12 -6 -9 -14 3 -8 -2 -13 -16 -13 -25 0 -27 13 -6
34 9 9 11 17 5 21 -5 3 -10 1 -10 -5z"/>
<path d="M358 1938 c-3 -7 -20 -12 -38 -12 -45 -1 -63 -36 -68 -132 -6 -110
40 -195 135 -251 63 -37 179 -43 238 -13 l40 20 -45 -7 c-95 -15 -211 1 -195
26 3 5 -7 12 -23 16 -15 3 -35 14 -44 22 -17 15 -16 17 3 45 17 23 19 36 13
71 -9 48 -9 55 1 118 4 30 3 49 -4 53 -7 5 -7 15 -1 31 5 14 6 25 1 25 -5 0
-11 -5 -13 -12z m-16 -64 c-8 -59 -7 -160 1 -181 6 -17 3 -24 -13 -33 -16 -8
-20 -8 -18 2 2 7 -1 12 -7 11 -15 -2 -19 141 -5 182 7 21 18 35 28 35 15 0 15
2 2 11 -13 9 -13 10 0 6 10 -2 14 -13 12 -33z"/>
<path d="M543 1886 c20 -8 44 -19 52 -26 19 -16 38 -77 32 -102 -6 -20 -5 -20
10 -5 40 40 -34 147 -100 147 l-32 -1 38 -13z"/>
<path d="M458 1846 c-29 -29 -38 -47 -37 -70 l2 -31 7 35 c6 30 8 31 9 8 0
-14 4 -34 8 -44 4 -12 3 -15 -5 -10 -8 5 -10 2 -6 -9 4 -8 15 -20 26 -26 16
-9 19 -8 13 2 -6 9 -3 11 9 6 10 -4 25 -7 34 -8 10 -1 7 -4 -8 -9 -24 -8 -24
-8 5 -9 20 0 41 10 63 29 31 29 43 48 21 34 -7 -4 -9 1 -5 15 10 36 16 67 10
55 -3 -7 -16 -1 -34 17 -16 16 -37 29 -48 29 -12 0 -22 6 -24 13 -2 7 -19 -4
-40 -27z m102 -35 c15 -30 12 -56 -10 -76 -46 -41 -116 29 -75 75 23 26 71 26
85 1z"/>
<path d="M420 1615 c0 -7 7 -18 15 -25 11 -9 15 -9 15 -1 0 7 5 9 10 6 6 -3
10 2 10 12 0 12 -8 18 -25 19 -14 1 -25 -4 -25 -11z"/>
<path d="M2535 1988 c-27 -11 -55 -24 -62 -30 -18 -15 -18 -191 0 -207 8 -6
42 -21 78 -35 l64 -24 75 27 75 27 0 108 0 108 -64 24 c-75 28 -99 29 -166 2z
m159 -19 l56 -22 0 -93 0 -93 -57 -21 c-75 -28 -78 -28 -151 -1 l-62 23 0 93
0 92 53 21 c68 26 94 26 161 1z"/>
<path d="M2592 1958 c-29 -29 4 -76 42 -62 21 8 21 44 0 44 -10 0 -14 -6 -10
-15 3 -9 0 -15 -9 -15 -8 0 -15 9 -15 20 0 15 7 20 26 20 14 0 23 4 19 10 -8
14 -38 13 -53 -2z"/>
<path d="M2500 1925 c-13 -16 -4 -59 11 -50 5 4 9 1 9 -6 0 -7 8 -9 21 -6 11
3 27 3 35 0 25 -9 4 -23 -36 -23 -40 0 -52 -13 -43 -48 11 -42 67 -34 68 9 0
16 8 25 25 29 33 8 70 -8 70 -31 0 -22 32 -41 54 -33 19 7 21 45 4 62 -7 7
-24 12 -40 12 -38 0 -118 40 -118 60 0 35 -38 51 -60 25z"/>
<path d="M2672 1928 c-7 -7 -12 -17 -12 -24 0 -6 -10 -19 -22 -28 l-23 -17 25
7 c14 4 27 11 29 16 1 5 9 1 16 -8 16 -23 45 -11 45 19 0 24 -17 47 -35 47 -6
0 -16 -5 -23 -12z"/>
<path d="M2591 1779 c-6 -18 -11 -33 -11 -33 0 -1 16 -2 35 -2 19 0 35 1 35 2
0 17 -25 64 -35 64 -7 0 -18 -14 -24 -31z"/>
<path d="M2213 1933 c-4 -10 -14 -23 -23 -30 -26 -18 -55 -92 -42 -105 8 -8 7
-16 -1 -29 -10 -17 -6 -25 38 -65 48 -44 49 -46 30 -60 -11 -8 -36 -19 -56
-24 -48 -13 -64 -34 -63 -80 1 -37 1 -38 -39 -42 -21 -2 -78 3 -124 11 -82 14
-86 14 -99 -4 -15 -20 -18 -63 -6 -82 4 -6 34 -13 67 -14 57 -2 62 -5 119 -56
32 -30 78 -64 101 -75 l42 -20 -23 -57 c-13 -31 -26 -71 -30 -88 -6 -31 -9
-33 -45 -33 -22 0 -39 -4 -39 -10 0 -6 100 -10 279 -10 256 0 283 -2 313 -19
25 -14 43 -17 77 -12 24 3 46 12 49 19 2 6 -1 12 -7 12 -6 0 -11 7 -11 16 0
13 -7 15 -30 10 -45 -8 -63 17 -89 120 -12 49 -32 104 -43 123 -18 28 -22 55
-26 157 -6 146 -10 152 -104 164 -64 8 -91 4 -49 -7 16 -4 20 -10 15 -22 -4
-9 -9 -28 -11 -43 -3 -14 -16 -36 -29 -49 -20 -19 -26 -20 -41 -8 -14 12 -16
12 -8 0 6 -11 4 -13 -9 -8 -10 4 -22 7 -27 7 -17 0 -60 103 -48 115 7 7 13 5
19 -5 15 -24 23 -3 12 29 -12 35 -7 38 26 15 13 -9 29 -13 37 -11 8 4 15 -3
19 -18 7 -26 34 -41 50 -25 7 7 3 10 -12 10 -17 0 -21 6 -21 28 0 15 -3 42 -7
60 -4 21 -2 32 5 32 6 0 11 9 11 21 0 12 -4 18 -11 13 -7 -4 -2 7 10 23 28 38
25 83 -6 99 -13 6 -31 18 -41 27 -25 23 -91 23 -99 0z m33 -2 c-3 -4 5 -6 18
-4 14 3 32 0 43 -6 10 -6 13 -11 5 -11 -7 0 -11 -4 -8 -9 3 -5 15 -7 26 -4 28
7 47 -35 30 -67 -10 -18 -14 -20 -21 -9 -4 8 -6 24 -3 35 3 12 1 25 -5 28 -7
5 -8 1 -4 -10 5 -13 1 -12 -15 4 -32 32 -79 30 -94 -5 -6 -16 -11 -31 -10 -35
1 -5 -3 -8 -8 -8 -6 0 -15 -10 -19 -22 -8 -22 -9 -22 -17 -4 -9 23 22 83 48
92 10 3 16 10 13 15 -8 11 3 29 16 29 6 0 8 -4 5 -9z m68 -111 c4 -5 10 -28
13 -52 4 -35 1 -47 -16 -62 -32 -29 -70 -12 -98 44 l-22 44 22 24 c18 19 28
22 57 17 19 -4 39 -10 44 -15z m-126 -52 c7 -7 12 -20 12 -30 0 -10 7 -21 15
-24 8 -4 15 -12 15 -19 0 -8 -18 2 -39 22 -23 20 -37 41 -34 49 6 17 15 18 31
2z m303 -155 c21 -18 29 -68 18 -107 -5 -19 -5 -34 1 -40 6 -6 10 -29 10 -53
0 -26 10 -63 24 -91 13 -26 27 -63 30 -82 20 -98 37 -139 67 -161 23 -16 33
-19 42 -10 14 14 27 14 27 1 0 -5 -7 -10 -16 -10 -8 0 -12 -4 -9 -10 8 -13
-24 -13 -63 1 -22 7 -29 15 -25 26 4 10 2 14 -3 10 -14 -8 -105 171 -104 204
0 15 -7 45 -14 67 -10 29 -13 64 -10 114 4 49 2 68 -4 59 -8 -11 -14 -7 -27
19 -9 18 -15 43 -12 56 2 13 -1 25 -7 28 -6 3 5 2 24 -1 19 -3 42 -12 51 -20z
m-291 -61 c0 -27 -3 -52 -7 -56 -4 -4 -6 -36 -4 -72 2 -51 0 -65 -13 -70 -16
-6 -46 11 -46 26 0 4 9 10 19 13 15 4 20 16 23 58 3 37 0 58 -9 67 -8 7 -9 7
-3 0 14 -17 12 -28 -5 -28 -15 0 -31 -61 -20 -80 4 -7 -4 -10 -25 -8 -17 1
-34 6 -36 10 -6 9 -44 11 -44 3 0 -17 46 -50 92 -66 39 -13 54 -23 56 -38 6
-35 -57 -28 -109 12 -24 17 -41 35 -38 39 2 3 -8 16 -24 28 -15 12 -25 26 -22
31 4 5 -1 6 -9 3 -9 -3 -19 3 -26 16 -10 18 -9 25 3 37 12 12 18 13 36 1 17
-10 25 -10 41 0 11 6 39 12 62 12 33 0 39 3 30 12 -7 7 -12 26 -12 43 0 40 16
55 57 55 33 0 33 0 33 -48z m239 -35 c15 -15 14 -60 -1 -75 -7 -7 -25 -12 -41
-12 -16 0 -26 -4 -22 -10 3 -5 17 -10 30 -10 13 0 27 -5 30 -11 13 -20 -5 -22
-47 -6 -25 10 -54 14 -68 10 -22 -6 -24 -5 -11 10 17 21 3 22 -23 2 -14 -11
-16 -15 -5 -15 8 0 1 -7 -15 -15 -36 -19 -38 -19 -34 2 2 10 -5 26 -16 37 -14
14 -17 27 -12 55 3 20 6 54 6 76 l1 40 15 -37 c9 -21 25 -40 37 -44 12 -3 30
-13 40 -22 16 -14 20 -12 57 26 23 23 40 50 40 64 1 17 4 13 15 -16 7 -21 18
-43 24 -49z m-513 -57 c-1 -36 -3 -39 -26 -36 -44 6 -70 18 -70 31 0 35 13 45
55 45 l42 0 -1 -40z m401 -97 c-5 -26 -4 -26 9 -8 8 10 14 23 14 28 0 11 50 0
68 -16 9 -7 13 -28 11 -56 -1 -25 0 -57 4 -71 3 -14 9 -42 12 -62 l6 -38 -38
0 c-29 0 -34 3 -25 12 7 7 12 17 12 23 0 5 -5 2 -11 -7 -6 -11 -22 -18 -38
-18 -32 0 -96 24 -106 40 -3 5 -16 15 -28 22 -20 10 -21 10 -8 -5 12 -15 10
-16 -20 -11 -19 4 -35 8 -37 10 -7 5 31 68 61 101 69 76 77 83 98 83 18 0 20
-4 16 -27z m147 -65 c5 -36 21 -78 51 -130 25 -43 45 -80 45 -83 0 -3 -22 -5
-49 -5 -57 0 -61 6 -61 85 0 30 -5 66 -10 81 -11 29 -3 117 10 109 4 -2 10
-28 14 -57z m-241 -149 c20 -17 42 -39 47 -50 10 -18 6 -19 -79 -19 l-90 0 14
41 c8 22 17 44 20 50 12 18 51 9 88 -22z m225 -56 c3 -10 -12 -13 -55 -12 -57
1 -58 1 -28 15 35 16 77 14 83 -3z"/>
<path d="M2280 1768 c-1 -5 -3 -13 -4 -18 0 -6 -7 -14 -14 -19 -11 -6 -10 -10
4 -15 24 -9 33 4 23 34 -4 14 -8 22 -9 18z"/>
<path d="M804 1485 c-12 -8 -27 -28 -34 -45 -11 -26 -10 -37 4 -75 16 -40 16
-46 2 -74 -30 -58 -19 -119 32 -173 24 -26 32 -28 102 -28 70 0 78 2 102 28
49 50 61 118 33 173 -14 26 -14 34 0 75 13 38 13 48 3 58 -7 6 -24 24 -38 40
-23 26 -23 28 -3 15 12 -7 26 -22 32 -34 8 -16 10 -17 10 -3 1 9 -11 26 -25
37 -22 18 -41 21 -113 21 -60 0 -93 -5 -107 -15z m188 -42 c26 -23 25 -83 -1
-83 -11 0 -28 -3 -38 -6 -15 -5 -16 -4 -3 6 13 10 11 11 -7 7 -12 -3 -23 -1
-25 4 -2 5 -25 3 -53 -5 -27 -9 -53 -12 -57 -8 -10 10 8 83 24 93 25 16 140
10 160 -8z m-57 -121 c6 -4 10 -24 11 -44 0 -23 10 -49 27 -72 32 -41 32 -40
11 -60 -9 -10 -33 -16 -60 -16 -37 0 -51 6 -75 29 -17 17 -30 41 -31 58 -2 47
3 87 14 101 11 13 86 16 103 4z m88 -78 c3 -43 -23 -37 -39 10 -8 21 -11 43
-8 48 10 16 45 -26 47 -58z m-215 -81 c7 -12 22 -29 34 -37 25 -18 17 -21 -13
-6 -28 16 -49 64 -48 112 l2 43 6 -45 c4 -25 12 -55 19 -67z"/>
<path d="M430 1273 c-55 -9 -79 -26 -101 -70 -19 -38 -21 -55 -15 -116 6 -70
5 -73 -28 -122 -52 -75 -86 -141 -86 -168 0 -14 -7 -44 -15 -67 -21 -58 -19
-128 4 -165 10 -17 24 -48 31 -69 7 -21 40 -67 76 -106 45 -48 64 -75 64 -94
0 -22 4 -26 29 -26 51 0 91 -12 91 -27 0 -11 6 -14 23 -9 12 4 52 9 89 13 62
5 67 8 70 31 2 16 10 26 22 28 28 4 76 54 97 99 10 22 23 71 30 108 l13 69 57
-7 c66 -8 101 6 143 55 50 60 57 160 14 215 -24 30 -107 74 -127 67 -9 -3 -11
0 -6 8 6 9 4 11 -4 5 -7 -4 -22 1 -34 13 -12 11 -49 34 -83 50 -52 26 -66 29
-99 22 -42 -9 -98 -58 -116 -101 -6 -16 -15 -29 -20 -29 -5 0 -13 -9 -19 -20
-8 -15 -7 -25 3 -41 11 -15 16 -17 20 -7 3 7 6 -12 6 -42 1 -56 21 -101 44
-99 9 0 9 2 0 6 -16 6 -17 37 -2 64 8 16 7 25 -3 37 -17 20 -23 68 -10 76 5 3
17 -3 27 -14 16 -18 16 -20 1 -26 -20 -8 -21 -34 -1 -34 8 0 15 1 15 3 0 1 7
20 15 42 12 34 14 36 15 14 0 -15 -9 -38 -21 -53 l-20 -26 20 0 c19 0 41 -26
41 -47 0 -5 -7 -18 -16 -29 -8 -10 -13 -13 -9 -7 4 9 1 11 -9 7 -9 -3 -13 -10
-10 -15 9 -15 -53 -10 -65 5 -7 8 -16 27 -21 43 -7 25 -8 26 -9 5 -1 -35 27
-81 53 -88 55 -13 128 62 156 161 19 68 9 159 -21 191 -13 15 -18 25 -10 22
35 -11 55 -57 55 -126 0 -91 -26 -164 -78 -218 -51 -52 -92 -59 -131 -20 -22
22 -45 81 -45 116 0 8 -9 39 -19 67 l-19 52 22 3 c24 3 78 101 71 131 -2 10 2
29 9 43 16 29 9 81 -7 65 -15 -15 -54 -13 -99 3 -41 15 -48 8 -20 -17 11 -10
36 -17 60 -17 42 0 56 -15 26 -27 -13 -5 -15 -15 -10 -50 4 -31 2 -43 -7 -43
-16 0 -33 12 -38 28 -6 17 -49 -14 -49 -35 0 -15 2 -14 14 2 13 19 53 15 41
-4 -3 -6 -13 -7 -22 -4 -11 4 -14 3 -9 -5 9 -16 43 -15 48 0 3 7 7 6 11 -5 5
-14 1 -17 -23 -17 -17 0 -30 -5 -30 -11 0 -7 10 -9 25 -7 17 4 25 1 25 -8 0
-9 -11 -14 -28 -14 -31 0 -105 68 -117 108 -3 12 -11 20 -16 17 -5 -4 -9 -2
-9 4 0 5 -3 17 -7 27 -4 12 -3 15 5 10 8 -5 12 1 13 16 1 17 3 18 6 6 4 -15 8
-14 27 10 44 52 48 67 25 96 -11 14 -16 26 -10 26 5 0 19 -12 30 -26 29 -37
89 -65 120 -57 14 4 32 6 39 5 7 -2 12 8 12 27 0 37 -59 97 -110 111 -19 5
-37 9 -40 9 -3 -1 -16 -4 -30 -6z m-20 -42 c0 -4 -5 -12 -10 -17 -8 -8 -6 -15
5 -24 8 -7 15 -20 15 -30 0 -21 -57 -73 -71 -65 -5 4 -6 -1 -3 -9 4 -9 1 -16
-6 -16 -9 0 -11 18 -8 64 4 74 27 117 58 109 11 -3 20 -8 20 -12z m133 -33
c32 -32 32 -33 9 -36 -23 -4 -92 40 -92 59 0 22 53 7 83 -23z m-173 -226 c0
-8 12 -26 26 -39 24 -22 25 -25 10 -42 -9 -10 -16 -24 -16 -32 0 -21 -32 30
-41 65 -7 30 -7 29 -8 -11 -1 -29 -5 -42 -13 -40 -9 1 -13 -12 -13 -43 0 -44
1 -45 45 -60 25 -8 52 -19 59 -24 10 -6 12 -6 7 2 -4 7 -1 12 7 12 23 0 59
-47 62 -81 2 -26 10 -36 38 -51 36 -18 67 -61 67 -92 0 -8 -9 -21 -21 -29 -20
-15 -20 -16 -3 -43 l19 -27 6 33 c4 18 16 41 26 49 31 26 55 69 40 74 -6 2 -9
7 -6 11 9 10 37 -3 43 -20 3 -9 1 -24 -4 -35 -6 -11 -7 -19 -1 -19 5 0 12 11
15 25 7 28 15 31 40 12 17 -13 18 -18 6 -66 -7 -29 -23 -65 -36 -79 l-24 -27
6 45 c4 33 3 41 -5 30 -6 -8 -11 -27 -11 -43 0 -15 -4 -35 -9 -45 -5 -9 -12
-25 -15 -36 -6 -18 -17 -18 -60 0 -15 5 -17 4 -11 -6 4 -7 -11 -3 -33 10 -23
13 -40 25 -38 28 3 2 15 -3 28 -12 25 -18 38 -20 38 -8 0 5 -10 14 -22 21 -23
11 -23 11 2 5 19 -4 21 -3 10 5 -8 5 -44 17 -81 26 -75 19 -122 44 -139 74 -9
18 -8 21 7 21 13 0 14 3 5 12 -15 15 -102 48 -102 39 0 -4 29 -39 65 -76 36
-38 65 -72 65 -76 0 -4 16 -10 37 -14 45 -8 97 -58 90 -85 -4 -15 0 -20 13
-20 11 0 22 -5 25 -10 5 -8 -10 -9 -47 -4 -74 9 -136 22 -115 23 27 2 20 17
-17 40 -19 12 -40 29 -47 38 -12 15 -12 16 4 10 11 -4 16 -3 12 3 -3 6 -12 10
-19 10 -28 0 -67 44 -106 118 -42 81 -49 127 -31 201 5 20 14 59 21 86 6 29
32 81 61 123 27 41 49 79 49 84 0 6 9 3 20 -7 11 -10 20 -25 20 -33z m302 -2
c-40 -9 -66 -32 -82 -71 -7 -16 -15 -28 -17 -25 -8 8 27 64 53 85 15 12 38 21
53 20 23 -1 23 -2 -7 -9z m46 -6 c-4 -3 0 -21 8 -39 21 -51 18 -80 -11 -99
-13 -9 -27 -16 -31 -16 -3 0 -4 31 -2 69 2 38 0 67 -4 65 -4 -3 -8 -20 -8 -39
0 -31 -2 -33 -27 -29 -15 3 -29 7 -31 9 -11 10 43 66 71 74 42 12 41 12 35 5z
m165 -93 c20 -22 39 -53 43 -68 10 -46 14 -50 9 -8 -2 21 -14 52 -25 67 -11
15 -16 28 -11 28 16 0 41 -44 47 -82 8 -44 -10 -108 -37 -137 -11 -12 -22 -30
-23 -39 -2 -10 -13 -18 -27 -20 -13 -2 -34 -8 -47 -14 -18 -9 -28 -9 -42 0
-11 7 -26 12 -34 12 -28 0 -28 21 -1 60 34 50 53 105 61 177 3 32 7 64 10 71
5 18 33 2 77 -47z m93 -46 c10 -56 -4 -120 -37 -165 -17 -23 -33 -39 -36 -36
-4 3 1 14 9 23 53 61 66 164 29 230 l-22 38 25 -28 c14 -15 28 -43 32 -62z
m-556 -11 c0 -16 -5 -17 -37 -8 -13 4 -23 10 -23 14 0 9 40 18 53 12 4 -2 7
-10 7 -18z m604 -92 c-10 -40 -36 -82 -52 -82 -10 0 -11 4 -5 13 10 12 25 56
38 112 7 30 7 30 16 7 5 -13 6 -36 3 -50z"/>
<path d="M220 610 c8 -5 33 -9 55 -9 31 0 36 2 20 9 -29 13 -94 13 -75 0z"/>
<path d="M1310 1110 c-25 -25 -26 -62 -2 -83 25 -23 54 -21 82 3 19 16 37 20
105 20 69 0 85 -3 100 -20 23 -25 57 -26 79 -1 25 28 17 72 -16 90 -25 14 -29
14 -57 -7 -42 -31 -180 -32 -218 -2 -14 11 -32 20 -39 20 -8 0 -23 -9 -34 -20z
m80 -16 c9 -7 48 -15 90 -17 l75 -3 -80 -2 c-72 -1 -83 1 -110 24 -21 17 -24
23 -10 18 11 -4 27 -13 35 -20z"/>
<path d="M433 1069 c-25 -25 19 -49 61 -33 19 7 22 34 4 34 -7 0 -22 3 -33 6
-11 3 -26 -1 -32 -7z"/>
<path d="M2025 981 c-62 -38 -95 -100 -95 -178 0 -88 49 -149 128 -160 l42 -6
0 -53 c0 -77 19 -154 49 -197 l26 -38 67 5 c37 3 79 11 92 18 14 7 46 24 71
37 26 13 49 30 52 37 7 20 23 17 23 -3 0 -10 9 -29 20 -43 11 -14 20 -31 20
-39 0 -16 47 -112 62 -126 10 -9 8 23 -4 75 -1 8 3 14 10 13 19 -4 14 12 -12
36 -21 20 -52 81 -42 81 2 0 23 -9 47 -20 44 -20 109 -27 109 -12 0 4 -11 9
-25 10 -37 3 -83 29 -100 57 -8 14 -23 37 -32 53 -10 15 -16 30 -15 34 1 5 -6
8 -15 8 -15 0 -16 2 -3 10 13 9 13 10 0 10 -27 0 -42 -17 -44 -48 -1 -17 -7
-37 -14 -44 -6 -6 -12 -18 -12 -24 0 -19 -48 -53 -94 -66 -54 -15 -73 -33 -26
-24 21 3 29 2 20 -3 -8 -4 -32 -11 -52 -14 -33 -5 -40 -2 -58 24 -12 16 -16
29 -10 29 7 0 3 12 -8 28 -21 30 -33 61 -37 101 -1 14 -6 40 -10 56 -6 27 -3
31 24 42 30 11 31 10 31 -17 0 -37 10 -61 21 -54 10 6 48 -71 49 -98 0 -26 13
-28 39 -7 l23 19 -26 10 c-15 5 -32 21 -38 36 -11 23 -10 29 11 45 30 24 83
34 110 20 25 -14 28 -3 5 14 -15 10 -15 15 -3 40 32 67 122 94 184 56 35 -20
93 -32 101 -19 3 4 -1 8 -8 8 -8 0 -23 6 -34 14 -19 14 -18 15 5 24 16 6 -7 8
-75 8 -86 -1 -104 -4 -137 -25 -21 -12 -46 -40 -57 -61 -15 -29 -27 -39 -53
-44 -19 -4 -42 -15 -52 -26 -17 -19 -19 -19 -37 -4 -30 28 -22 41 26 41 55 0
91 22 111 69 17 41 19 56 5 34 -9 -13 -10 -13 -10 0 0 13 -1 13 -10 0 -13 -20
-12 -39 1 -20 8 12 10 12 7 1 -2 -8 -12 -15 -22 -17 -13 -2 -16 2 -10 14 14
32 16 103 4 133 -7 16 -10 33 -6 36 12 13 56 -41 65 -81 l11 -41 -5 39 c-7 62
-28 82 -155 146 -131 66 -173 73 -225 41z m132 -48 c14 -22 18 -50 19 -139 0
-109 0 -113 -23 -123 -18 -9 -36 -7 -76 5 -66 22 -89 41 -85 73 3 29 14 30 65
10 29 -12 34 -11 57 10 44 42 42 96 -5 122 -29 15 -34 4 -10 -20 12 -12 21
-30 21 -41 0 -24 -34 -60 -56 -60 -12 0 -10 6 10 21 31 24 33 52 7 78 -11 11
-16 22 -13 26 4 4 3 6 -3 5 -5 -1 -22 -2 -38 -1 -24 1 -26 3 -15 20 16 27 46
40 90 40 30 1 41 -4 55 -26z m122 -49 c16 -35 14 -97 -5 -144 -17 -42 -21 -45
-42 -31 -12 7 -11 14 3 41 9 17 14 34 11 37 -3 3 -13 -13 -22 -36 -9 -22 -20
-41 -25 -41 -12 0 -11 6 4 38 11 20 12 48 7 109 -5 45 -11 87 -15 93 -4 7 11
0 32 -14 22 -15 45 -38 52 -52z m-234 -28 c25 -11 33 -19 29 -30 -7 -18 -9
-18 -53 -10 -25 5 -29 9 -20 20 6 7 8 18 4 24 -8 13 -1 13 40 -4z m-78 -36
c-2 -48 -17 -54 -17 -7 0 29 6 47 16 47 2 0 2 -18 1 -40z m341 -132 c-3 -7
-15 -15 -28 -16 -21 -3 -22 -2 -11 12 16 19 44 21 39 4z"/>
<path d="M1304 979 c-25 -9 -54 -46 -54 -70 0 -9 9 -28 21 -43 28 -35 77 -36
109 -1 22 23 31 25 110 25 79 0 88 -2 110 -25 46 -49 130 -18 130 48 0 63 -84
91 -129 43 -21 -22 -29 -24 -113 -22 -71 2 -93 6 -102 19 -18 23 -57 36 -82
26z m79 -35 c26 -22 37 -25 76 -20 25 4 60 2 76 -3 24 -8 11 -10 -58 -8 -71 2
-87 -1 -88 -13 0 -8 -5 0 -10 17 -10 34 -41 50 -79 40 -11 -3 -18 -1 -14 4 11
18 66 9 97 -17z m319 9 c10 -9 18 -23 18 -32 0 -10 -5 -7 -13 9 -11 21 -20 25
-54 25 -23 0 -39 3 -36 8 8 13 66 7 85 -10z m-360 -65 c-10 -10 -16 -8 -30 5
-15 16 -15 19 -2 27 21 13 49 -15 32 -32z m330 0 c-9 -9 -16 -7 -32 7 -20 18
-20 20 -3 26 24 9 52 -16 35 -33z"/>
<path d="M1252 804 c-32 -22 -43 -57 -31 -94 20 -55 86 -68 137 -25 28 23 37
25 139 25 104 0 110 -1 131 -25 46 -52 142 -16 142 53 0 38 -43 82 -80 82 -25
0 -115 -61 -105 -71 2 -2 -46 -3 -106 -3 -92 1 -109 -1 -109 -14 0 -21 -6 -12
-14 21 -6 27 -6 27 16 14 17 -10 45 -11 113 -6 l90 6 -96 0 c-91 -1 -99 1
-129 26 -36 31 -66 34 -98 11z m84 -9 c23 -18 11 -20 -16 -3 -15 10 -27 10
-52 1 -30 -11 -31 -11 -14 2 25 19 57 19 82 0z m398 -6 c14 -11 26 -28 25 -37
0 -12 -3 -11 -9 6 -14 34 -54 49 -93 34 -29 -10 -30 -10 -13 3 27 21 59 19 90
-6z m-414 -44 c14 -17 7 -45 -13 -45 -24 0 -51 26 -44 44 8 20 40 21 57 1z
m394 -1 c15 -38 -11 -51 -55 -28 -25 12 -28 18 -18 30 16 19 65 18 73 -2z"/>
<path d="M1223 593 c-7 -2 -13 -13 -13 -22 0 -14 -6 -17 -30 -13 -25 4 -30 1
-30 -16 0 -16 -6 -20 -32 -18 l-33 1 -8 -72 c-5 -40 -5 -101 0 -135 8 -61 9
-63 38 -63 21 0 32 -6 36 -20 4 -14 13 -19 31 -18 19 1 28 -4 31 -18 4 -15 12
-20 32 -17 l26 3 2 202 c2 161 -1 204 -11 208 -16 6 -22 5 -39 -2z m47 -28 c0
-8 -9 -15 -20 -15 -11 0 -20 7 -20 15 0 8 9 15 20 15 11 0 20 -7 20 -15z m-65
-26 c12 -18 16 -254 6 -279 -7 -18 -10 12 -10 113 -1 113 -4 139 -16 143 -8 4
-15 12 -15 20 0 16 26 19 35 3z m-57 -152 c2 -85 0 -117 -8 -112 -8 5 -11 41
-9 104 3 84 1 96 -14 99 -26 5 -21 34 6 30 21 -3 22 -7 25 -121z"/>
<path d="M1714 588 c-5 -7 -9 -44 -9 -83 l0 -69 -212 0 -213 1 0 -48 0 -48
205 0 c113 0 209 -2 215 -6 5 -3 10 -40 10 -81 l0 -75 28 3 c15 2 27 9 26 16
-1 6 -2 89 -2 182 -2 163 -3 170 -22 170 -12 0 -20 7 -20 16 0 12 7 15 25 11
16 -3 24 0 22 7 -5 16 -44 19 -53 4z m-49 -175 c-16 -3 -37 -11 -45 -18 -22
-19 -316 -19 -324 0 -2 7 -2 16 1 19 4 3 94 5 202 5 108 -1 183 -4 166 -6z
m85 -21 c0 -9 -5 -24 -10 -32 -8 -13 -11 -13 -26 2 -17 16 -17 18 1 37 19 23
35 19 35 -7z"/>
<path d="M1777 554 c-4 -4 -7 -78 -7 -164 0 -132 3 -160 16 -171 19 -16 52 1
44 23 -3 7 -5 72 -6 143 -1 112 -3 130 -18 133 -19 4 -22 32 -3 32 7 0 19 -6
26 -12 11 -11 13 -10 9 2 -5 16 -49 26 -61 14z"/>
<path d="M1847 524 c-4 -4 -7 -67 -7 -141 l0 -133 30 0 c28 0 30 2 30 39 0 22
5 43 10 46 6 3 10 28 10 56 0 27 -4 49 -10 49 -5 0 -10 7 -10 16 0 9 -9 18
-20 21 -11 3 -20 12 -20 20 0 11 7 14 21 10 13 -3 19 -1 16 6 -4 14 -39 21
-50 11z"/>
</g>
</svg>
